<svg width="40" height="40" viewBox="0 0 40 40" fill="none" xmlns="http://www.w3.org/2000/svg">
<rect x="0.5" y="0.5" width="39" height="39" rx="4.5" stroke="#ED5F25"/>
<path d="M24.5081 11.1341C24.1539 10.7675 23.5644 10.7675 23.1978 11.1341C22.8436 11.4883 22.8436 12.0778 23.1978 12.4312L29.8419 19.0753H7.91731C7.40622 19.0761 7 19.4823 7 19.9934C7 20.5045 7.40622 20.9239 7.91731 20.9239H29.8419L23.1978 27.5556C22.8436 27.9222 22.8436 28.5125 23.1978 28.8659C23.5644 29.2325 24.1547 29.2325 24.5081 28.8659L32.7251 20.649C33.0916 20.2948 33.0916 19.7052 32.7251 19.3519L24.5081 11.1341Z" fill="#ED5F25"/>
</svg>
