<svg width="50" height="50" viewBox="0 0 50 50" fill="none" xmlns="http://www.w3.org/2000/svg">
<g clip-path="url(#clip0)">
<path d="M39.0087 21.3398C38.8748 21.3398 38.7386 21.3428 38.6011 21.3478C37.2781 19.9841 35.6297 18.9958 33.8332 18.4626C34.2454 14.1531 32.3393 10.0298 30.4523 7.10383C30.2245 6.75051 29.75 6.6554 29.4027 6.8925C29.0679 7.12112 28.9766 7.57424 29.1965 7.91516C30.9203 10.5871 32.662 14.3081 32.3623 18.1343C31.8189 18.0514 31.2672 18.0083 30.7113 18.0083C29.0482 18.0083 27.4706 18.3803 26.0561 19.0444V17.7058L29.6505 14.1115C29.9399 13.822 29.9692 13.3466 29.6887 13.0487C29.3983 12.7403 28.9128 12.7347 28.6152 13.0322L26.056 15.5913V11.5862C26.056 11.1768 25.7407 10.8198 25.3315 10.8076C24.9082 10.7948 24.5609 11.1344 24.5609 11.5549V15.5913L22.0018 13.0322C21.7099 12.7402 21.2366 12.7402 20.9447 13.0322C20.6528 13.3241 20.6527 13.7975 20.9447 14.0893L24.561 17.7056V19.8943C23.2254 20.7993 22.099 21.9906 21.2694 23.3787C21.1555 20.2831 20.2035 17.6343 18.4161 15.4663C18.3979 15.4444 18.379 15.4229 18.3606 15.401C19.2201 9.69651 23.7744 4.6304 25.3099 3.06213C25.7087 3.4679 26.3096 4.10725 26.9933 4.92815C27.253 5.23997 27.7148 5.28684 28.0324 5.0343L28.0327 5.03411C28.3616 4.77258 28.4093 4.29192 28.1404 3.96887C26.8558 2.42541 25.8617 1.50637 25.8151 1.4635C25.5292 1.20032 25.0889 1.20032 24.8029 1.4635C24.535 1.70989 18.6255 7.2135 17.0866 14.087C14.7503 11.9939 11.448 10.4933 7.41131 9.70881C3.77254 9.00149 0.847737 9.11409 0.72508 9.11916C0.336701 9.13538 0.0256662 9.44651 0.0094553 9.83479C0.00437717 9.95745 -0.108025 12.8823 0.599006 16.5209C1.54637 21.3961 3.53739 25.2015 6.35653 27.5257C6.69559 27.8052 7.04774 28.0618 7.41024 28.3005C2.74149 32.166 0.179377 37.7994 0.0663889 38.0515C-0.0925955 38.4062 0.0466623 38.8235 0.386701 39.0114C0.67967 39.1735 6.64354 42.4248 13.0243 42.4245C13.9345 42.4244 14.8535 42.3568 15.7656 42.2061C17.4802 46.0486 21.3366 48.7336 25.8088 48.7336C30.0565 48.7336 33.7489 46.3113 35.5781 42.7756C36.6807 43.1384 37.8314 43.3226 39.0088 43.3226C40.9445 43.3226 42.8205 42.8211 44.4808 41.8656C44.8544 41.6506 44.9621 41.1601 44.7209 40.8029C44.4998 40.4756 44.0648 40.3808 43.7221 40.5772C42.2915 41.3971 40.676 41.8274 39.0088 41.8274C38.0373 41.8274 37.0877 41.6806 36.1754 41.395C36.5795 40.2516 36.8003 39.0223 36.8003 37.7422C36.8003 33.4086 34.2791 29.6532 30.6266 27.8646C32.1602 24.9813 35.0551 23.0843 38.3441 22.8575C38.5689 22.8425 38.7925 22.8348 39.0088 22.8348C44.245 22.8348 48.505 27.0948 48.505 32.331C48.505 34.4642 47.7935 36.5162 46.4888 38.182C46.2462 38.4918 46.2795 38.9351 46.5708 39.1999L46.571 39.2001C46.8941 39.4939 47.3968 39.4473 47.6661 39.1035C49.1764 37.1754 50.0001 34.7999 50.0001 32.331C50 26.2705 45.0692 21.3398 39.0087 21.3398ZM7.31141 26.3753C4.09813 23.7286 2.68944 19.4196 2.07362 16.2707C1.59461 13.8217 1.50692 11.6716 1.49735 10.6067C2.55565 10.6158 4.68582 10.7023 7.12606 11.1764C12.8497 12.2887 15.7975 14.6404 17.2625 16.4173C19.5506 19.1928 20.2847 22.9181 19.4523 27.5048L17.1668 25.2193V18.5781C17.1668 18.1652 16.8321 17.8305 16.4192 17.8305C16.0063 17.8305 15.6717 18.1652 15.6717 18.5781V23.724L12.3809 20.4333V15.319C12.3809 14.9061 12.0463 14.5714 11.6334 14.5714C11.2205 14.5714 10.8858 14.9061 10.8858 15.319V18.9382L8.03162 16.084C7.73963 15.792 7.26629 15.792 6.97449 16.084C6.6825 16.376 6.6825 16.8493 6.97449 17.1411L9.82869 19.9953H6.20955C5.79666 19.9953 5.46199 20.33 5.46199 20.7429C5.46199 21.1558 5.79666 21.4905 6.20955 21.4905H11.3238L14.6145 24.7812H9.46824C9.05535 24.7812 8.72069 25.1158 8.72069 25.5287C8.72069 25.9416 9.05535 26.2763 9.46824 26.2763H16.1095L18.395 28.5618C13.8103 29.3941 10.0864 28.6609 7.31141 26.3753ZM12.8853 33.5192L8.39022 31.2735C8.02078 31.089 7.57186 31.2388 7.38729 31.608C7.20282 31.9775 7.35262 32.4264 7.72186 32.611L10.8795 34.1884L5.71502 35.9119C5.32342 36.0426 5.1119 36.466 5.24256 36.8576C5.34705 37.1708 5.63865 37.3688 5.95155 37.3688C6.02996 37.3688 6.10975 37.3563 6.18826 37.3301L11.4728 35.5666L9.81541 38.8841C9.63094 39.2535 9.78074 39.7025 10.15 39.887C10.2573 39.9406 10.3713 39.9659 10.4835 39.9659C10.7578 39.9659 11.022 39.8144 11.1528 39.5524L13.4784 34.8973L15.3822 34.2619C15.016 35.3562 14.8172 36.5264 14.8172 37.7422C14.8172 38.7939 14.9659 39.8114 15.243 40.775C9.67088 41.5751 3.67069 38.9628 1.74363 38.0251C2.57703 36.3983 5.0452 32.021 8.80985 29.0939C10.6044 29.9572 12.6391 30.3918 14.9047 30.3918C15.8479 30.3918 16.8322 30.3147 17.8542 30.1645C17.2118 30.8385 16.6546 31.5943 16.1985 32.4135L12.8853 33.5192ZM35.305 37.7423C35.305 42.9785 31.045 47.2385 25.8088 47.2385C20.5725 47.2385 16.3125 42.9784 16.3125 37.7423C16.3125 32.5061 20.5725 28.246 25.8088 28.246C31.045 28.246 35.305 32.5061 35.305 37.7423ZM29.2353 27.2985C28.1565 26.9436 27.0048 26.7508 25.8088 26.7508C24.2036 26.7508 22.6778 27.0968 21.3016 27.718C21.9293 23.0857 25.9095 19.5032 30.7111 19.5032C32.8816 19.5032 34.98 20.2518 36.6537 21.5929C33.4651 22.2857 30.7452 24.3617 29.2353 27.2985Z" fill="#705042"/>
<path d="M28.6663 34.7092C26.7562 34.7092 25.2021 36.2632 25.2021 38.1734C25.2021 40.0835 26.7562 41.6376 28.6663 41.6376C30.5765 41.6376 32.1306 40.0835 32.1306 38.1734C32.1306 36.2632 30.5766 34.7092 28.6663 34.7092ZM28.6663 40.1423C27.5806 40.1423 26.6974 39.259 26.6974 38.1734C26.6974 37.0877 27.5806 36.2044 28.6663 36.2044C29.7521 36.2044 30.6355 37.0877 30.6355 38.1734C30.6355 39.2589 29.7521 40.1423 28.6663 40.1423Z" fill="#705042"/>
<path d="M38.8105 24.283C36.5702 24.283 34.8809 25.3029 34.8809 26.6553C34.8809 28.0078 36.5702 29.0277 38.8105 29.0277C41.0509 29.0277 42.7402 28.0078 42.7402 26.6553C42.7402 25.3029 41.0508 24.283 38.8105 24.283ZM40.7206 27.1384C40.23 27.3889 39.5339 27.5326 38.8104 27.5326C38.087 27.5326 37.3909 27.3889 36.9003 27.1384C36.5156 26.9419 36.3759 26.7419 36.3759 26.6553C36.3759 26.5688 36.5155 26.3687 36.9003 26.1722C37.3909 25.9217 38.087 25.7781 38.8104 25.7781C39.5339 25.7781 40.23 25.9217 40.7206 26.1722C41.1054 26.3687 41.245 26.5688 41.245 26.6553C41.245 26.7419 41.1054 26.9419 40.7206 27.1384Z" fill="#705042"/>
</g>
<defs>
<clipPath id="clip0">
<rect width="50" height="50" fill="white"/>
</clipPath>
</defs>
</svg>
