<svg width="20" height="20" viewBox="0 0 20 20" fill="none" xmlns="http://www.w3.org/2000/svg">
<g clip-path="url(#clip0)">
<path d="M17.501 3.1239H5.00542C4.31531 3.1239 3.75586 3.68335 3.75586 4.37346C3.75586 5.06357 4.31531 5.62302 5.00542 5.62302H17.501C18.1911 5.62302 18.7506 5.06357 18.7506 4.37346C18.7506 3.68335 18.1911 3.1239 17.501 3.1239Z" fill="#705042"/>
<path d="M2.5071 4.37345C2.50569 4.04259 2.37312 3.72579 2.13848 3.49251C1.65111 3.00803 0.863964 3.00803 0.376596 3.49251C0.141913 3.72579 0.00934276 4.04259 0.00797606 4.37345C-0.0013566 4.4544 -0.0013566 4.53617 0.00797606 4.61711C0.0221117 4.69853 0.0451505 4.77815 0.0767019 4.85453C0.110245 4.92853 0.149957 4.9996 0.19541 5.06696C0.240277 5.13701 0.292642 5.20195 0.351605 5.26064C0.40846 5.31726 0.47129 5.36755 0.539039 5.41058C0.604837 5.4585 0.676179 5.49837 0.751465 5.52929C0.834287 5.57225 0.922576 5.6038 1.01387 5.62301C1.09482 5.63207 1.17659 5.63207 1.25754 5.62301C1.5875 5.62328 1.90418 5.49302 2.13848 5.26064C2.19744 5.20195 2.24981 5.13701 2.29467 5.06696C2.34012 4.9996 2.37984 4.92853 2.41338 4.85453C2.45325 4.77909 2.48468 4.69947 2.5071 4.61711C2.51643 4.53617 2.51643 4.4544 2.5071 4.37345Z" fill="#705042"/>
<path d="M2.50645 9.9965C2.51574 9.91555 2.51574 9.83378 2.50645 9.75283C2.48485 9.6722 2.45338 9.59457 2.41273 9.52166C2.38055 9.44501 2.34076 9.37175 2.29402 9.30299C2.25072 9.23372 2.19816 9.17065 2.13783 9.11556C1.65046 8.63108 0.863312 8.63108 0.375945 9.11556C0.141261 9.34883 0.00869093 9.66564 0.00732422 9.9965C0.00974524 10.1612 0.0414919 10.324 0.101041 10.4776C0.132358 10.5515 0.170001 10.6226 0.213502 10.69C0.261024 10.7579 0.315458 10.8207 0.375945 10.8774C0.43116 10.9376 0.494184 10.9902 0.563379 11.0336C0.629176 11.0816 0.700479 11.1215 0.775804 11.1523C0.851988 11.1844 0.931687 11.2075 1.01322 11.2211C1.09315 11.239 1.17496 11.2474 1.25688 11.2461C1.33783 11.2554 1.4196 11.2554 1.50055 11.2461C1.58005 11.2324 1.65768 11.2094 1.73172 11.1773C1.80907 11.1466 1.88249 11.1068 1.95039 11.0586C2.01959 11.0152 2.08261 10.9626 2.13783 10.9024C2.19804 10.8472 2.2506 10.7842 2.29402 10.715C2.34205 10.6492 2.38192 10.5779 2.41273 10.5026C2.45541 10.4196 2.48692 10.3314 2.50645 10.2402C2.51605 10.1592 2.51605 10.0774 2.50645 9.9965Z" fill="#705042"/>
<path d="M2.50457 15.6195C2.51382 15.5386 2.51382 15.4568 2.50457 15.3759C2.48298 15.2933 2.4515 15.2136 2.41085 15.1385C2.37731 15.0645 2.3376 14.9934 2.29214 14.926C2.24872 14.8568 2.19616 14.7938 2.13595 14.7386C1.64858 14.2541 0.861436 14.2541 0.374068 14.7386C0.313855 14.7938 0.261295 14.8568 0.217873 14.926C0.17242 14.9934 0.132708 15.0645 0.0991647 15.1385C0.0667543 15.2145 0.0436764 15.2943 0.0304389 15.3759C0.0128279 15.4559 0.00447147 15.5376 0.00544769 15.6195C0.00685345 15.9504 0.139424 16.2672 0.374068 16.5005C0.429283 16.5607 0.492308 16.6133 0.561502 16.6567C0.627299 16.7046 0.698602 16.7445 0.773928 16.7754C0.850112 16.8074 0.92981 16.8305 1.01134 16.8441C1.09128 16.862 1.17308 16.8704 1.25501 16.8691C1.33596 16.8784 1.41772 16.8784 1.49867 16.8691C1.57818 16.8555 1.6558 16.8324 1.72984 16.8004C1.8072 16.7697 1.88061 16.7298 1.94851 16.6817C2.01771 16.6382 2.08073 16.5857 2.13595 16.5255C2.19616 16.4703 2.24872 16.4072 2.29214 16.338C2.34021 16.2723 2.38008 16.201 2.41085 16.1256C2.45349 16.0426 2.48501 15.9544 2.50457 15.8632C2.51418 15.7823 2.51418 15.7005 2.50457 15.6195Z" fill="#705042"/>
<path d="M18.7506 8.74695H5.00542C4.31531 8.74695 3.75586 9.3064 3.75586 9.99651C3.75586 10.6866 4.31531 11.2461 5.00542 11.2461H18.7506C19.4407 11.2461 20.0001 10.6866 20.0001 9.99651C20.0001 9.3064 19.4407 8.74695 18.7506 8.74695Z" fill="#705042"/>
<path d="M13.1276 14.37H5.00542C4.31531 14.37 3.75586 14.9294 3.75586 15.6196C3.75586 16.3097 4.31531 16.8691 5.00542 16.8691H13.1276C13.8177 16.8691 14.3771 16.3097 14.3771 15.6196C14.3771 14.9294 13.8177 14.37 13.1276 14.37Z" fill="#705042"/>
</g>
<defs>
<clipPath id="clip0">
<rect width="20" height="20" fill="white"/>
</clipPath>
</defs>
</svg>
