<svg width="22" height="22" viewBox="0 0 22 22" fill="none" xmlns="http://www.w3.org/2000/svg">
<path fill-rule="evenodd" clip-rule="evenodd" d="M13.6776 13.2726H14.4653L18.6934 17.2507C19.1022 17.6335 19.1022 18.2592 18.6934 18.6421C18.2845 19.0249 17.6164 19.0249 17.2076 18.6421L12.9696 14.6733V13.9356L12.7003 13.6741C11.3043 14.7947 9.39968 15.3737 7.37541 15.0562C4.60326 14.6173 2.38952 12.4508 2.05048 9.83614C1.53195 5.88609 5.0819 2.56169 9.29996 3.04728C12.0921 3.36477 14.4055 5.43785 14.8742 8.03387C15.2132 9.92952 14.595 11.7131 13.3984 13.0205L13.6776 13.2726ZM3.99435 9.07051C3.99435 11.3957 5.99868 13.2727 8.48165 13.2727C10.9646 13.2727 12.9689 11.3957 12.9689 9.07051C12.9689 6.74532 10.9646 4.86835 8.48165 4.86835C5.99868 4.86835 3.99435 6.74532 3.99435 9.07051Z" fill="#705042"/>
</svg>
