<svg width="58" height="21" viewBox="0 0 58 21" fill="none" xmlns="http://www.w3.org/2000/svg">
<rect x="1" y="1" width="56" height="19" rx="4" fill="#705042" stroke="#705042" stroke-width="2"/>
<path d="M12.7 12.295C12.7733 12.295 12.8367 12.3233 12.89 12.38L13.42 12.955C13.1267 13.3183 12.765 13.5967 12.335 13.79C11.9083 13.9833 11.395 14.08 10.795 14.08C10.2583 14.08 9.775 13.9883 9.345 13.805C8.91833 13.6217 8.55333 13.3667 8.25 13.04C7.94667 12.7133 7.71333 12.3233 7.55 11.87C7.39 11.4167 7.31 10.9217 7.31 10.385C7.31 9.84167 7.4 9.345 7.58 8.895C7.76 8.44167 8.01333 8.05167 8.34 7.725C8.66667 7.39833 9.05667 7.145 9.51 6.965C9.96667 6.78167 10.47 6.69 11.02 6.69C11.5567 6.69 12.025 6.77667 12.425 6.95C12.8283 7.12 13.1733 7.34667 13.46 7.63L13.01 8.255C12.9833 8.295 12.9483 8.33 12.905 8.36C12.865 8.39 12.8083 8.405 12.735 8.405C12.6583 8.405 12.58 8.375 12.5 8.315C12.42 8.255 12.3183 8.19 12.195 8.12C12.0717 8.05 11.915 7.985 11.725 7.925C11.5383 7.865 11.3 7.835 11.01 7.835C10.67 7.835 10.3567 7.895 10.07 8.015C9.78667 8.13167 9.54167 8.3 9.335 8.52C9.13167 8.74 8.97167 9.00833 8.855 9.325C8.74167 9.63833 8.685 9.99167 8.685 10.385C8.685 10.7917 8.74167 11.1533 8.855 11.47C8.97167 11.7867 9.12833 12.0533 9.325 12.27C9.52167 12.4867 9.75333 12.6533 10.02 12.77C10.2867 12.8833 10.5733 12.94 10.88 12.94C11.0633 12.94 11.2283 12.93 11.375 12.91C11.525 12.89 11.6617 12.8583 11.785 12.815C11.9117 12.7717 12.03 12.7167 12.14 12.65C12.2533 12.58 12.365 12.495 12.475 12.395C12.5083 12.365 12.5433 12.3417 12.58 12.325C12.6167 12.305 12.6567 12.295 12.7 12.295ZM15.684 6.57V14H14.449V6.57H15.684ZM19.2038 8.79C19.5272 8.79 19.8238 8.84167 20.0938 8.945C20.3672 9.04833 20.6022 9.2 20.7988 9.4C20.9955 9.59667 21.1488 9.84 21.2588 10.13C21.3688 10.4167 21.4238 10.745 21.4238 11.115C21.4238 11.2083 21.4188 11.2867 21.4088 11.35C21.4022 11.41 21.3872 11.4583 21.3638 11.495C21.3438 11.5283 21.3155 11.5533 21.2788 11.57C21.2422 11.5833 21.1955 11.59 21.1388 11.59H17.9688C18.0055 12.1167 18.1472 12.5033 18.3938 12.75C18.6405 12.9967 18.9672 13.12 19.3738 13.12C19.5738 13.12 19.7455 13.0967 19.8888 13.05C20.0355 13.0033 20.1622 12.9517 20.2688 12.895C20.3788 12.8383 20.4738 12.7867 20.5538 12.74C20.6372 12.6933 20.7172 12.67 20.7938 12.67C20.8438 12.67 20.8872 12.68 20.9238 12.7C20.9605 12.72 20.9922 12.7483 21.0188 12.785L21.3788 13.235C21.2422 13.395 21.0888 13.53 20.9188 13.64C20.7488 13.7467 20.5705 13.8333 20.3838 13.9C20.2005 13.9633 20.0122 14.0083 19.8188 14.035C19.6288 14.0617 19.4438 14.075 19.2638 14.075C18.9072 14.075 18.5755 14.0167 18.2688 13.9C17.9622 13.78 17.6955 13.605 17.4688 13.375C17.2422 13.1417 17.0638 12.855 16.9338 12.515C16.8038 12.1717 16.7388 11.775 16.7388 11.325C16.7388 10.975 16.7955 10.6467 16.9088 10.34C17.0222 10.03 17.1838 9.76167 17.3938 9.535C17.6072 9.305 17.8655 9.12333 18.1688 8.99C18.4755 8.85667 18.8205 8.79 19.2038 8.79ZM19.2288 9.675C18.8688 9.675 18.5872 9.77667 18.3838 9.98C18.1805 10.1833 18.0505 10.4717 17.9938 10.845H20.3138C20.3138 10.685 20.2922 10.535 20.2488 10.395C20.2055 10.2517 20.1388 10.1267 20.0488 10.02C19.9588 9.91333 19.8455 9.83 19.7088 9.77C19.5722 9.70667 19.4122 9.675 19.2288 9.675ZM26.4456 14H25.8906C25.774 14 25.6823 13.9833 25.6156 13.95C25.549 13.9133 25.499 13.8417 25.4656 13.735L25.3556 13.37C25.2256 13.4867 25.0973 13.59 24.9706 13.68C24.8473 13.7667 24.719 13.84 24.5856 13.9C24.4523 13.96 24.3106 14.005 24.1606 14.035C24.0106 14.065 23.844 14.08 23.6606 14.08C23.444 14.08 23.244 14.0517 23.0606 13.995C22.8773 13.935 22.719 13.8467 22.5856 13.73C22.4556 13.6133 22.354 13.4683 22.2806 13.295C22.2073 13.1217 22.1706 12.92 22.1706 12.69C22.1706 12.4967 22.2206 12.3067 22.3206 12.12C22.424 11.93 22.594 11.76 22.8306 11.61C23.0673 11.4567 23.3823 11.33 23.7756 11.23C24.169 11.13 24.6573 11.0733 25.2406 11.06V10.76C25.2406 10.4167 25.1673 10.1633 25.0206 10C24.8773 9.83333 24.6673 9.75 24.3906 9.75C24.1906 9.75 24.024 9.77333 23.8906 9.82C23.7573 9.86667 23.6406 9.92 23.5406 9.98C23.444 10.0367 23.354 10.0883 23.2706 10.135C23.1873 10.1817 23.0956 10.205 22.9956 10.205C22.9123 10.205 22.8406 10.1833 22.7806 10.14C22.7206 10.0967 22.6723 10.0433 22.6356 9.98L22.4106 9.585C23.0006 9.045 23.7123 8.775 24.5456 8.775C24.8456 8.775 25.1123 8.825 25.3456 8.925C25.5823 9.02167 25.7823 9.15833 25.9456 9.335C26.109 9.50833 26.2323 9.71667 26.3156 9.96C26.4023 10.2033 26.4456 10.47 26.4456 10.76V14ZM24.0456 13.23C24.1723 13.23 24.289 13.2183 24.3956 13.195C24.5023 13.1717 24.6023 13.1367 24.6956 13.09C24.7923 13.0433 24.884 12.9867 24.9706 12.92C25.0606 12.85 25.1506 12.7683 25.2406 12.675V11.81C24.8806 11.8267 24.579 11.8583 24.3356 11.905C24.0956 11.9483 23.9023 12.005 23.7556 12.075C23.609 12.145 23.504 12.2267 23.4406 12.32C23.3806 12.4133 23.3506 12.515 23.3506 12.625C23.3506 12.8417 23.414 12.9967 23.5406 13.09C23.6706 13.1833 23.839 13.23 24.0456 13.23ZM27.66 14V8.87H28.385C28.5117 8.87 28.6 8.89333 28.65 8.94C28.7 8.98667 28.7333 9.06667 28.75 9.18L28.825 9.8C29.0083 9.48333 29.2233 9.23333 29.47 9.05C29.7167 8.86667 29.9933 8.775 30.3 8.775C30.5533 8.775 30.7633 8.83333 30.93 8.95L30.77 9.875C30.76 9.935 30.7383 9.97833 30.705 10.005C30.6717 10.0283 30.6267 10.04 30.57 10.04C30.52 10.04 30.4517 10.0283 30.365 10.005C30.2783 9.98167 30.1633 9.97 30.02 9.97C29.7633 9.97 29.5433 10.0417 29.36 10.185C29.1767 10.325 29.0217 10.5317 28.895 10.805V14H27.66Z" fill="white"/>
<path d="M50.75 4.875H41.375C40.9375 4.875 40.625 5.0625 40.375 5.4375L37 10.5L40.375 15.5625C40.625 15.875 40.9375 16.125 41.375 16.125H50.75C51.4375 16.125 52 15.5625 52 14.875V6.125C52 5.4375 51.4375 4.875 50.75 4.875ZM48.875 12.75L48 13.625L45.75 11.375L43.5 13.625L42.625 12.75L44.875 10.5L42.625 8.25L43.5 7.375L45.75 9.625L48 7.375L48.875 8.25L46.625 10.5L48.875 12.75Z" fill="white"/>
</svg>
