<svg width="40" height="40" viewBox="0 0 40 40" fill="none" xmlns="http://www.w3.org/2000/svg">
<g clip-path="url(#clip0)">
<path d="M32.1875 10.625C32.1875 11.0562 32.5375 11.4062 32.9688 11.4062C33.4 11.4062 33.75 11.0562 33.75 10.625C33.75 10.1938 33.4 9.84375 32.9688 9.84375C32.5375 9.84375 32.1875 10.1938 32.1875 10.625Z" fill="#ED5F25"/>
<path d="M35.3139 20C35.3139 21.0007 35.2135 21.9995 35.0157 22.9688C34.9294 23.3914 35.2022 23.804 35.6249 23.8904C35.6777 23.9014 35.7302 23.9066 35.782 23.9066C36.1455 23.9066 36.4711 23.6511 36.5468 23.2813C36.7656 22.2092 36.8764 21.1053 36.8764 20C36.8764 17.54 36.3429 15.1727 35.2904 12.9639C35.1048 12.5745 34.6388 12.4091 34.2491 12.5946C33.8594 12.7801 33.6943 13.2465 33.8799 13.6362C34.8314 15.6332 35.3139 17.7744 35.3139 20Z" fill="#ED5F25"/>
<path d="M23.9062 27.0312H23.125V16.875C23.125 16.4435 22.7753 16.0938 22.3438 16.0938H16.0938C15.6622 16.0938 15.3125 16.4435 15.3125 16.875V20C15.3125 20.4315 15.6622 20.7812 16.0938 20.7812H16.875V27.0312H16.0938C15.6622 27.0312 15.3125 27.381 15.3125 27.8125V30.9375C15.3125 31.369 15.6622 31.7188 16.0938 31.7188H23.9062C24.3378 31.7188 24.6875 31.369 24.6875 30.9375V27.8125C24.6875 27.381 24.3378 27.0312 23.9062 27.0312ZM23.125 30.1562H16.875V28.5938H17.6562C18.0878 28.5938 18.4375 28.244 18.4375 27.8125V20C18.4375 19.5685 18.0878 19.2188 17.6562 19.2188H16.875V17.6562H21.5625V27.8125C21.5625 28.244 21.9125 28.5938 22.3438 28.5938H23.125V30.1562Z" fill="#ED5F25"/>
<path d="M20 14.5312C21.723 14.5312 23.125 13.1293 23.125 11.4062C23.125 9.68323 21.723 8.28125 20 8.28125C18.277 8.28125 16.875 9.68323 16.875 11.4062C16.875 13.1293 18.277 14.5312 20 14.5312ZM20 9.84375C20.8615 9.84375 21.5625 10.5447 21.5625 11.4062C21.5625 12.2678 20.8615 12.9688 20 12.9688C19.1385 12.9688 18.4375 12.2678 18.4375 11.4062C18.4375 10.5447 19.1385 9.84375 20 9.84375Z" fill="#ED5F25"/>
<path d="M19.9995 0C9.22013 0 -0.000454213 9.20319 -0.000454213 20C-0.000454213 23.688 1.05637 27.6102 2.83829 30.5768L0.0395238 38.9719C-0.05386 39.2523 0.019077 39.5621 0.228428 39.7711C0.438694 39.9814 0.748752 40.0531 1.02799 39.9597L9.42307 37.1613C12.3894 38.9435 16.3115 40 19.9995 40C30.7817 40 39.9995 30.7956 39.9995 20C39.9995 9.21783 30.7954 0 19.9995 0V0ZM19.9995 38.4375C16.4616 38.4375 12.7013 37.3935 9.94034 35.6448C9.74472 35.5209 9.50089 35.4883 9.27506 35.5637L2.01615 37.9834L4.43589 30.7245C4.51035 30.5017 4.48044 30.2576 4.35471 30.0592C2.60605 27.2986 1.56205 23.5379 1.56205 20C1.56205 10.0058 10.0053 1.5625 19.9995 1.5625C29.9937 1.5625 38.437 10.0058 38.437 20C38.437 29.9942 29.9937 38.4375 19.9995 38.4375Z" fill="#ED5F25"/>
</g>
<defs>
<clipPath id="clip0">
<rect width="40" height="40" fill="white"/>
</clipPath>
</defs>
</svg>
