<svg width="50" height="50" viewBox="0 0 50 50" fill="none" xmlns="http://www.w3.org/2000/svg">
<path d="M2.36839 1.88505C2.52103 1.84565 2.68259 1.86003 2.82587 1.92577C2.96915 1.9915 3.08542 2.10459 3.15511 2.24599C3.21761 2.37412 4.7641 5.41474 11.5383 8.99208C11.6319 9.03295 11.7151 9.09427 11.7818 9.17154C11.8485 9.24881 11.8971 9.34006 11.9239 9.43857C12.3472 11.0238 12.9211 12.565 13.6379 14.0409C14.0334 13.1841 14.2985 12.273 14.4243 11.3378C14.4392 11.2341 14.4777 11.1352 14.5369 11.0488C14.5961 10.9624 14.6743 10.8907 14.7656 10.8393C14.8569 10.788 14.9587 10.7583 15.0633 10.7525C15.1679 10.7467 15.2724 10.7651 15.3688 10.8061C17.1594 11.569 19.1082 12.2956 21.1614 12.9651C23.8837 13.8352 26.5103 14.98 29.0008 16.3819C29.1449 16.4646 29.2539 16.5969 29.3075 16.7542C29.6163 17.6604 29.9499 18.5164 30.3082 19.3222C30.2934 19.0534 30.2736 18.7677 30.2489 18.4651C30.2381 18.336 30.2643 18.2064 30.3244 18.0916C30.3845 17.9768 30.476 17.8814 30.5882 17.8166C30.7005 17.7518 30.8288 17.7202 30.9583 17.7256C31.0878 17.7309 31.2131 17.7729 31.3196 17.8468C38.2645 22.6561 42.0489 29.444 43.2242 39.1835C45.0037 41.0448 46.5667 43.1015 47.8836 45.3144C48.1296 45.7323 48.2067 46.2284 48.0991 46.7013C47.9915 47.1742 47.7073 47.5881 47.3047 47.8585C47.0072 48.0501 46.6609 48.1523 46.3071 48.1526H15.0571C14.8758 48.1526 14.7019 48.0806 14.5737 47.9524C14.4455 47.8242 14.3735 47.6503 14.3735 47.469C14.3735 47.2877 14.4455 47.1139 14.5737 46.9857C14.7019 46.8575 14.8758 46.7854 15.0571 46.7854H44.4278C43.2408 44.8738 41.852 43.0951 40.2852 41.48C33.5465 41.1495 17.9207 39.7886 11.7797 34.2362C11.334 33.8329 10.9101 33.4061 10.5098 32.9577C10.4296 32.8684 10.3743 32.7595 10.3495 32.642C10.3247 32.5246 10.3313 32.4026 10.3686 32.2885C10.4059 32.1744 10.4726 32.0721 10.562 31.992C10.6514 31.9118 10.7603 31.8566 10.8778 31.8319C11.0243 31.8015 11.1692 31.7694 11.3133 31.737C10.8274 31.6683 10.2813 31.603 9.67933 31.5491C9.57939 31.5399 9.48269 31.5089 9.39603 31.4583C9.30937 31.4077 9.23486 31.3387 9.17776 31.2561C4.18597 24.0124 2.74925 18.3851 1.85863 2.58427C1.8499 2.42681 1.89589 2.27117 1.98879 2.14374C2.0817 2.0163 2.21581 1.92491 2.36839 1.88505ZM46.7028 46.003C42.445 38.6983 34.566 33.1472 26.225 27.271C24.4797 26.0417 22.5 24.6483 20.6028 23.255C20.5188 23.1927 20.4171 23.159 20.3125 23.1589C20.2864 23.1589 20.2602 23.161 20.2344 23.1651C20.1712 23.1749 20.1106 23.1972 20.0561 23.2307C20.0016 23.2643 19.9544 23.3084 19.9172 23.3604C19.8413 23.4649 19.8096 23.595 19.8291 23.7226C19.8485 23.8502 19.9175 23.965 20.0211 24.0421C21.927 25.4378 23.9118 26.8358 25.6641 28.0694C33.9309 33.8936 41.7395 39.3948 45.8883 46.5433C45.9213 46.6001 45.9655 46.6497 46.0182 46.689C46.071 46.7282 46.1312 46.7563 46.1951 46.7716C46.2591 46.7868 46.3255 46.7889 46.3902 46.7776C46.455 46.7664 46.5168 46.7421 46.5719 46.7061C46.6776 46.6265 46.7497 46.5101 46.7739 46.38C46.7981 46.2499 46.7728 46.1154 46.7028 46.003ZM10.1239 30.2175C11.571 30.3379 13.0046 30.5863 14.4078 30.9597C14.5455 31.0014 14.6665 31.0855 14.7536 31.1999C14.8408 31.3144 14.8896 31.4534 14.8932 31.5972C14.8968 31.741 14.855 31.8822 14.7737 32.0009C14.6923 32.1196 14.5757 32.2096 14.4403 32.2581C13.7825 32.4925 13.0813 32.7058 12.3453 32.894C12.4625 33.0061 12.5778 33.1147 12.6969 33.221C18.1703 38.1698 32.4285 39.6214 38.8446 40.0292C34.8946 36.2468 29.9739 32.7792 24.875 29.1874C23.1172 27.9503 21.1289 26.5483 19.2145 25.144C18.8205 24.8527 18.5572 24.4177 18.482 23.9335C18.4067 23.4493 18.5255 22.9549 18.8125 22.5577C18.956 22.3598 19.1373 22.1922 19.3458 22.0646C19.5544 21.937 19.7861 21.852 20.0277 21.8144C20.2693 21.7768 20.5159 21.7873 20.7534 21.8454C20.9908 21.9036 21.2145 22.0081 21.4114 22.153C23.2996 23.5382 25.2723 24.9265 27.0125 26.1538C32.3188 29.8921 37.4399 33.5007 41.6094 37.5354C40.3379 29.7151 37.1532 24.0143 31.7 19.8167C31.7392 20.6137 31.7289 21.4124 31.6692 22.2081C31.6548 22.3512 31.5957 22.4861 31.5002 22.5936C31.4048 22.7011 31.2779 22.7759 31.1375 22.8071C30.9972 22.8383 30.8505 22.8245 30.7185 22.7676C30.5864 22.7107 30.4757 22.6136 30.402 22.4901C29.4671 20.8885 28.695 19.1972 28.0973 17.4417C25.7529 16.1451 23.2873 15.0812 20.7356 14.2651C18.9426 13.6792 17.2262 13.0518 15.6211 12.394C15.125 14.6722 14.1657 15.8218 14.12 15.8749C14.0487 15.9586 13.9583 16.0239 13.8564 16.0653C13.7546 16.1066 13.6442 16.1228 13.5348 16.1124C13.4253 16.102 13.32 16.0654 13.2277 16.0056C13.1354 15.9458 13.0589 15.8647 13.0047 15.769C12.007 13.9744 11.2278 12.0667 10.684 10.0866C6.83792 8.02958 4.60745 6.11708 3.35862 4.77021C4.23362 18.3726 5.68987 23.7011 10.1239 30.2175Z" fill="#705042"/>
<path d="M6.14568 15.6406C6.23408 15.6245 6.32479 15.626 6.4126 15.645C6.50042 15.664 6.58362 15.7002 6.65744 15.7514C6.73125 15.8027 6.79422 15.868 6.84275 15.9436C6.89127 16.0192 6.92439 16.1037 6.94021 16.1921C7.12654 17.2285 7.33083 18.1738 7.55974 19.0828C7.60413 19.2585 7.57694 19.4447 7.48414 19.6004C7.39134 19.7561 7.24052 19.8686 7.06482 19.9132C7.00979 19.9272 6.95322 19.9341 6.89646 19.9339C6.74448 19.9338 6.59688 19.8831 6.47697 19.7897C6.35706 19.6963 6.27169 19.5656 6.23435 19.4183C5.99646 18.4808 5.78669 17.5042 5.59411 16.4351C5.56191 16.2566 5.60193 16.0726 5.70536 15.9236C5.8088 15.7746 5.96718 15.6728 6.14568 15.6406Z" fill="#705042"/>
</svg>
