<svg width="31" height="27" viewBox="0 0 31 27" fill="none" xmlns="http://www.w3.org/2000/svg">
<path fill-rule="evenodd" clip-rule="evenodd" d="M9.71916 8.13572L17.199 0.603349C17.982 -0.198836 19.2512 -0.198836 20.0478 0.589752C20.5338 1.07922 20.7363 1.77263 20.6013 2.45245L19.3187 8.67958H26.947C29.8498 8.67958 31.8075 11.6708 30.6734 14.3628L26.2719 24.7097C25.8399 25.7022 24.8678 26.3548 23.7877 26.3548H11.6364C10.1512 26.3548 8.93607 25.1312 8.93607 23.6356V10.0528C8.93607 9.3322 9.2196 8.63879 9.71916 8.13572ZM6.23945 23.6362C6.23945 25.1318 5.02432 26.3555 3.53916 26.3555C2.054 26.3555 0.838867 25.1318 0.838867 23.6362V12.7592C0.838867 11.2636 2.054 10.0399 3.53916 10.0399C5.02432 10.0399 6.23945 11.2636 6.23945 12.7592V23.6362Z" fill="#696969"/>
</svg>
