<svg width="200" height="200" viewBox="0 0 200 200" fill="none" xmlns="http://www.w3.org/2000/svg">
<g clip-path="url(#clip0)">
<path d="M180.038 94.4693C180.038 84.4208 172.461 76.1138 162.721 74.947V24.5134C162.721 21.4255 160.718 18.8107 157.737 18.0072C154.756 17.2044 151.71 18.4576 150.159 21.1267C139.505 39.4556 122.725 51.9837 100.286 58.3638C83.3172 63.188 69.3148 62.4888 69.1797 62.4806C68.9742 62.4689 68.7699 62.4786 68.5676 62.499H32.6883C14.6641 62.499 0 77.163 0 95.1872C0 112.164 13.0105 126.155 29.5836 127.724L40.4055 172.225C41.8383 178.117 47.0742 182.232 53.1383 182.232H60.6492C64.6957 182.232 68.4508 180.408 70.9516 177.226C73.4523 174.044 74.3379 169.964 73.382 166.032L64.1027 127.875H68.5609C68.7641 127.896 68.9691 127.906 69.1762 127.894C69.3152 127.886 83.3172 127.186 100.286 132.011C122.725 138.391 139.505 150.919 150.159 169.247C151.397 171.379 153.588 172.608 155.938 172.608C156.532 172.608 157.136 172.529 157.737 172.367C160.718 171.564 162.721 168.949 162.721 165.861V115.427C172.461 114.261 180.038 105.954 180.038 95.9052V94.4693ZM64.5563 162.803L65.7902 167.878C66.1766 169.466 65.8191 171.114 64.809 172.399C63.7996 173.683 62.2832 174.42 60.6492 174.42H53.1383C50.6895 174.42 48.5754 172.758 47.9969 170.379L37.6605 127.876H56.0625L58.8215 139.221H56.9543C54.7969 139.221 53.048 140.97 53.048 143.127C53.048 145.285 54.7969 147.034 56.9543 147.034H60.7211L62.6563 154.991H61.432C59.2746 154.991 57.5258 156.74 57.5258 158.897C57.5258 161.054 59.2746 162.803 61.432 162.803H64.5563ZM65.052 103.486H40.7762C38.6188 103.486 36.8699 105.235 36.8699 107.393C36.8699 109.55 38.6188 111.299 40.7762 111.299H65.052V120.063H59.3453C59.2738 120.059 59.2027 120.054 59.1301 120.054H32.6883C32.6512 120.054 32.6145 120.06 32.5773 120.06C18.9121 120 7.8125 108.867 7.8125 95.1872C7.8125 81.4708 18.9719 70.3115 32.6883 70.3115H65.052V103.486ZM154.908 78.7079V111.667V162.045C143.202 143.84 125.044 130.868 102.158 124.422C89.4867 120.852 78.5418 120.139 72.8645 120.047V107.393V70.3279C78.5426 70.2353 89.4879 69.522 102.158 65.9529C125.043 59.506 143.202 46.5349 154.908 28.3294V78.7079ZM172.224 95.9052C172.224 101.637 168.136 106.432 162.721 107.526V82.8486C168.135 83.9423 172.224 88.7372 172.224 94.4693V95.9052Z" fill="#6C9F29" fill-opacity="0.5"/>
<path d="M181.205 72.3969C182.144 72.3969 183.086 72.0606 183.834 71.3789L195.101 61.118C196.696 59.6653 196.811 57.195 195.359 55.5996C193.906 54.0047 191.436 53.8895 189.84 55.3418L178.574 65.6024C176.979 67.0551 176.863 69.5254 178.316 71.1207C179.087 71.9672 180.144 72.3969 181.205 72.3969Z" fill="#6C9F29" fill-opacity="0.5"/>
<path d="M183.834 118.996C182.239 117.543 179.769 117.659 178.316 119.253C176.863 120.848 176.979 123.319 178.574 124.772L189.84 135.032C190.59 135.714 191.531 136.051 192.47 136.051C193.531 136.051 194.588 135.621 195.359 134.775C196.811 133.18 196.696 130.709 195.101 129.256L183.834 118.996Z" fill="#6C9F29" fill-opacity="0.5"/>
<path d="M196.096 91.2812H187.445C185.288 91.2812 183.539 93.0301 183.539 95.1875C183.539 97.3449 185.288 99.0938 187.445 99.0938H196.096C198.254 99.0938 200.003 97.3449 200.003 95.1875C200.003 93.0301 198.254 91.2812 196.096 91.2812Z" fill="#6C9F29" fill-opacity="0.5"/>
<path d="M28.2895 105.9C28.1919 105.662 28.0708 105.435 27.9302 105.224C27.7856 105.009 27.6255 104.81 27.4458 104.63C27.2622 104.451 27.063 104.287 26.8481 104.146C26.6372 104.005 26.4106 103.884 26.1763 103.787C25.938 103.689 25.6919 103.615 25.4458 103.564C24.9419 103.462 24.4224 103.462 23.9185 103.564C23.6685 103.615 23.4224 103.689 23.188 103.787C22.9536 103.884 22.7231 104.005 22.5122 104.146C22.2974 104.287 22.0981 104.451 21.9185 104.63C21.7388 104.81 21.5747 105.009 21.4341 105.224C21.2935 105.435 21.1724 105.662 21.0747 105.9C20.9771 106.134 20.9028 106.38 20.8521 106.63C20.8013 106.88 20.7739 107.138 20.7739 107.392C20.7739 107.646 20.8013 107.904 20.8521 108.158C20.9028 108.404 20.9771 108.65 21.0747 108.888C21.1724 109.123 21.2935 109.349 21.4341 109.56C21.5747 109.775 21.7388 109.974 21.9185 110.154C22.0981 110.333 22.2974 110.498 22.5122 110.642C22.7231 110.783 22.9536 110.904 23.188 111.001C23.4224 111.099 23.6685 111.173 23.9185 111.224C24.1724 111.275 24.4263 111.298 24.6802 111.298C24.938 111.298 25.1919 111.275 25.4458 111.224C25.6958 111.173 25.938 111.099 26.1763 111.001C26.4106 110.904 26.6372 110.783 26.8481 110.642C27.063 110.498 27.2622 110.333 27.4458 110.154C27.6255 109.974 27.7856 109.775 27.9302 109.56C28.0708 109.349 28.1919 109.123 28.2895 108.888C28.3872 108.65 28.4614 108.404 28.5122 108.158C28.563 107.904 28.5864 107.646 28.5864 107.392C28.5864 107.138 28.563 106.88 28.5122 106.63C28.4614 106.38 28.3872 106.134 28.2895 105.9Z" fill="#6C9F29" fill-opacity="0.5"/>
</g>
<defs>
<clipPath id="clip0">
<rect width="200" height="200" fill="white"/>
</clipPath>
</defs>
</svg>
