<svg width="63" height="26" viewBox="0 0 63 26" fill="none" xmlns="http://www.w3.org/2000/svg">
<path d="M4.54 3.955C4.51 4.005 4.47833 4.04333 4.445 4.07C4.41167 4.09333 4.36833 4.105 4.315 4.105C4.25833 4.105 4.19167 4.07667 4.115 4.02C4.04167 3.96333 3.94667 3.90167 3.83 3.835C3.71667 3.765 3.57833 3.70167 3.415 3.645C3.255 3.58833 3.06 3.56 2.83 3.56C2.61333 3.56 2.42167 3.59 2.255 3.65C2.08833 3.70667 1.94833 3.785 1.835 3.885C1.725 3.985 1.64167 4.10333 1.585 4.24C1.52833 4.37333 1.5 4.51833 1.5 4.675C1.5 4.875 1.54833 5.04167 1.645 5.175C1.745 5.305 1.875 5.41667 2.035 5.51C2.19833 5.60333 2.38167 5.685 2.585 5.755C2.79167 5.82167 3.00167 5.89167 3.215 5.965C3.43167 6.03833 3.64167 6.12167 3.845 6.215C4.05167 6.305 4.235 6.42 4.395 6.56C4.55833 6.7 4.68833 6.87167 4.785 7.075C4.885 7.27833 4.935 7.52833 4.935 7.825C4.935 8.13833 4.88167 8.43333 4.775 8.71C4.66833 8.98333 4.51167 9.22167 4.305 9.425C4.10167 9.62833 3.85 9.78833 3.55 9.905C3.25333 10.0217 2.915 10.08 2.535 10.08C2.07167 10.08 1.64833 9.99667 1.265 9.83C0.885 9.66 0.56 9.43167 0.29 9.145L0.57 8.685C0.596667 8.64833 0.628333 8.61833 0.665 8.595C0.705 8.56833 0.748333 8.555 0.795 8.555C0.865 8.555 0.945 8.59333 1.035 8.67C1.125 8.74333 1.23667 8.825 1.37 8.915C1.50667 9.005 1.67 9.08833 1.86 9.165C2.05333 9.23833 2.28833 9.275 2.565 9.275C2.795 9.275 3 9.24333 3.18 9.18C3.36 9.11667 3.51167 9.02833 3.635 8.915C3.76167 8.79833 3.85833 8.66 3.925 8.5C3.99167 8.34 4.025 8.16167 4.025 7.965C4.025 7.74833 3.975 7.57167 3.875 7.435C3.77833 7.295 3.65 7.17833 3.49 7.085C3.33 6.99167 3.14667 6.91333 2.94 6.85C2.73667 6.78333 2.52667 6.71667 2.31 6.65C2.09667 6.58 1.88667 6.5 1.68 6.41C1.47667 6.32 1.295 6.20333 1.135 6.06C0.975 5.91667 0.845 5.73833 0.745 5.525C0.648333 5.30833 0.6 5.04167 0.6 4.725C0.6 4.47167 0.648333 4.22667 0.745 3.99C0.845 3.75333 0.988333 3.54333 1.175 3.36C1.36167 3.17667 1.59167 3.03 1.865 2.92C2.14167 2.81 2.45833 2.755 2.815 2.755C3.215 2.755 3.58 2.81833 3.91 2.945C4.24 3.07167 4.52833 3.255 4.775 3.495L4.54 3.955ZM11.9827 10H11.0077V6.74H7.14773V10H6.17273V2.835H7.14773V6.03H11.0077V2.835H11.9827V10ZM20.3863 6.42C20.3863 6.95667 20.3013 7.45 20.1313 7.9C19.9613 8.34667 19.7213 8.73167 19.4113 9.055C19.1013 9.37833 18.728 9.63 18.2913 9.81C17.858 9.98667 17.378 10.075 16.8513 10.075C16.3247 10.075 15.8447 9.98667 15.4113 9.81C14.978 9.63 14.6063 9.37833 14.2963 9.055C13.9863 8.73167 13.7463 8.34667 13.5763 7.9C13.4063 7.45 13.3213 6.95667 13.3213 6.42C13.3213 5.88333 13.4063 5.39167 13.5763 4.945C13.7463 4.495 13.9863 4.10833 14.2963 3.785C14.6063 3.45833 14.978 3.205 15.4113 3.025C15.8447 2.845 16.3247 2.755 16.8513 2.755C17.378 2.755 17.858 2.845 18.2913 3.025C18.728 3.205 19.1013 3.45833 19.4113 3.785C19.7213 4.10833 19.9613 4.495 20.1313 4.945C20.3013 5.39167 20.3863 5.88333 20.3863 6.42ZM19.3913 6.42C19.3913 5.98 19.3313 5.585 19.2113 5.235C19.0913 4.885 18.9213 4.59 18.7013 4.35C18.4813 4.10667 18.2147 3.92 17.9013 3.79C17.588 3.66 17.238 3.595 16.8513 3.595C16.468 3.595 16.1197 3.66 15.8063 3.79C15.493 3.92 15.2247 4.10667 15.0013 4.35C14.7813 4.59 14.6113 4.885 14.4913 5.235C14.3713 5.585 14.3113 5.98 14.3113 6.42C14.3113 6.86 14.3713 7.255 14.4913 7.605C14.6113 7.95167 14.7813 8.24667 15.0013 8.49C15.2247 8.73 15.493 8.915 15.8063 9.045C16.1197 9.17167 16.468 9.235 16.8513 9.235C17.238 9.235 17.588 9.17167 17.9013 9.045C18.2147 8.915 18.4813 8.73 18.7013 8.49C18.9213 8.24667 19.0913 7.95167 19.2113 7.605C19.3313 7.255 19.3913 6.86 19.3913 6.42ZM20.9098 2.835H21.7148C21.8015 2.835 21.8732 2.85667 21.9298 2.9C21.9865 2.94333 22.0248 2.99833 22.0448 3.065L23.5248 8.045C23.5515 8.135 23.5748 8.23167 23.5948 8.335C23.6182 8.43833 23.6398 8.54667 23.6598 8.66C23.6832 8.54667 23.7065 8.43833 23.7298 8.335C23.7532 8.22833 23.7798 8.13167 23.8098 8.045L25.4948 3.065C25.5148 3.00833 25.5532 2.95667 25.6098 2.91C25.6698 2.86 25.7415 2.835 25.8248 2.835H26.1048C26.1915 2.835 26.2615 2.85667 26.3148 2.9C26.3715 2.94333 26.4115 2.99833 26.4348 3.065L28.1098 8.045C28.1698 8.21833 28.2232 8.41667 28.2698 8.64C28.2898 8.53 28.3082 8.425 28.3248 8.325C28.3415 8.225 28.3632 8.13167 28.3898 8.045L29.8748 3.065C29.8915 3.005 29.9282 2.95167 29.9848 2.905C30.0448 2.85833 30.1165 2.835 30.1998 2.835H30.9548L28.7198 10H27.8498L26.0348 4.535C25.9982 4.43167 25.9648 4.31167 25.9348 4.175C25.9182 4.24167 25.9015 4.30667 25.8848 4.37C25.8715 4.43 25.8565 4.485 25.8398 4.535L24.0148 10H23.1448L20.9098 2.835ZM37.354 7.41C37.4007 7.49 37.4407 7.575 37.474 7.665C37.5107 7.75167 37.5457 7.84 37.579 7.93C37.6123 7.83667 37.6473 7.74833 37.684 7.665C37.7207 7.57833 37.7623 7.49167 37.809 7.405L40.234 3C40.2773 2.92333 40.3223 2.87667 40.369 2.86C40.4157 2.84333 40.4823 2.835 40.569 2.835H41.284V10H40.434V4.735C40.434 4.665 40.4357 4.59 40.439 4.51C40.4423 4.43 40.4473 4.34833 40.454 4.265L37.999 8.745C37.9157 8.895 37.799 8.97 37.649 8.97H37.509C37.359 8.97 37.2423 8.895 37.159 8.745L34.649 4.25C34.659 4.33667 34.6657 4.42167 34.669 4.505C34.6757 4.58833 34.679 4.665 34.679 4.735V10H33.829V2.835H34.544C34.6307 2.835 34.6973 2.84333 34.744 2.86C34.7907 2.87667 34.8357 2.92333 34.879 3L37.354 7.41ZM49.6832 6.42C49.6832 6.95667 49.5982 7.45 49.4282 7.9C49.2582 8.34667 49.0182 8.73167 48.7082 9.055C48.3982 9.37833 48.0249 9.63 47.5882 9.81C47.1549 9.98667 46.6749 10.075 46.1482 10.075C45.6215 10.075 45.1415 9.98667 44.7082 9.81C44.2749 9.63 43.9032 9.37833 43.5932 9.055C43.2832 8.73167 43.0432 8.34667 42.8732 7.9C42.7032 7.45 42.6182 6.95667 42.6182 6.42C42.6182 5.88333 42.7032 5.39167 42.8732 4.945C43.0432 4.495 43.2832 4.10833 43.5932 3.785C43.9032 3.45833 44.2749 3.205 44.7082 3.025C45.1415 2.845 45.6215 2.755 46.1482 2.755C46.6749 2.755 47.1549 2.845 47.5882 3.025C48.0249 3.205 48.3982 3.45833 48.7082 3.785C49.0182 4.10833 49.2582 4.495 49.4282 4.945C49.5982 5.39167 49.6832 5.88333 49.6832 6.42ZM48.6882 6.42C48.6882 5.98 48.6282 5.585 48.5082 5.235C48.3882 4.885 48.2182 4.59 47.9982 4.35C47.7782 4.10667 47.5115 3.92 47.1982 3.79C46.8849 3.66 46.5349 3.595 46.1482 3.595C45.7649 3.595 45.4165 3.66 45.1032 3.79C44.7899 3.92 44.5215 4.10667 44.2982 4.35C44.0782 4.59 43.9082 4.885 43.7882 5.235C43.6682 5.585 43.6082 5.98 43.6082 6.42C43.6082 6.86 43.6682 7.255 43.7882 7.605C43.9082 7.95167 44.0782 8.24667 44.2982 8.49C44.5215 8.73 44.7899 8.915 45.1032 9.045C45.4165 9.17167 45.7649 9.235 46.1482 9.235C46.5349 9.235 46.8849 9.17167 47.1982 9.045C47.5115 8.915 47.7782 8.73 47.9982 8.49C48.2182 8.24667 48.3882 7.95167 48.5082 7.605C48.6282 7.255 48.6882 6.86 48.6882 6.42ZM52.0717 7.01V10H51.1067V2.835H53.1317C53.5851 2.835 53.9767 2.88167 54.3067 2.975C54.6367 3.065 54.9084 3.19667 55.1217 3.37C55.3384 3.54333 55.4984 3.75333 55.6017 4C55.7051 4.24333 55.7567 4.51667 55.7567 4.82C55.7567 5.07333 55.7167 5.31 55.6367 5.53C55.5567 5.75 55.4401 5.94833 55.2867 6.125C55.1367 6.29833 54.9517 6.44667 54.7317 6.57C54.5151 6.69333 54.2684 6.78667 53.9917 6.85C54.1117 6.92 54.2184 7.02167 54.3117 7.155L56.4017 10H55.5417C55.3651 10 55.2351 9.93167 55.1517 9.795L53.2917 7.235C53.2351 7.155 53.1734 7.09833 53.1067 7.065C53.0401 7.02833 52.9401 7.01 52.8067 7.01H52.0717ZM52.0717 6.305H53.0867C53.3701 6.305 53.6184 6.27167 53.8317 6.205C54.0484 6.135 54.2284 6.03833 54.3717 5.915C54.5184 5.78833 54.6284 5.63833 54.7017 5.465C54.7751 5.29167 54.8117 5.1 54.8117 4.89C54.8117 4.46333 54.6701 4.14167 54.3867 3.925C54.1067 3.70833 53.6884 3.6 53.1317 3.6H52.0717V6.305ZM61.8573 2.835V3.625H58.4173V6.005H61.2023V6.765H58.4173V9.21H61.8573V10H57.4423V2.835H61.8573Z" fill="#705042"/>
<line x1="0.5" y1="-0.5" x2="13.1015" y2="-0.5" transform="matrix(0.808736 0.588172 -0.808736 0.588172 21 18)" stroke="black" stroke-linecap="round" stroke-linejoin="round"/>
<line x1="0.5" y1="-0.5" x2="13.1015" y2="-0.5" transform="matrix(-0.808736 0.588172 0.808736 0.588172 43 18)" stroke="black" stroke-linecap="round" stroke-linejoin="round"/>
</svg>
