<svg width="20" height="20" viewBox="0 0 20 20" fill="none" xmlns="http://www.w3.org/2000/svg">
<path d="M19.0909 5.45493H16.329L17.2409 2.054C17.3709 1.56943 17.0836 1.07039 16.5982 0.940383C16.1128 0.810379 15.6136 1.09852 15.4846 1.58308L14.4474 5.45493H7.99089L8.90275 2.054C9.03276 1.56943 8.74545 1.07039 8.26005 0.940383C7.77449 0.811377 7.27644 1.09852 7.14727 1.58308L6.10906 5.45493H2.72727C2.2254 5.45493 1.81824 5.86126 1.81824 6.36397C1.81824 6.86684 2.2254 7.27317 2.72727 7.27317H5.62084L4.15816 12.7277H0.909035C0.407326 12.7277 0 13.134 0 13.6368C0 14.1395 0.407326 14.5458 0.909035 14.5458H3.67093L2.75907 17.9467C2.62906 18.4313 2.91637 18.9303 3.40177 19.0603C3.48 19.0813 3.55907 19.0913 3.63631 19.0913C4.03731 19.0913 4.40552 18.824 4.51372 18.4176L5.55276 14.5458H12.0091L11.0972 17.9467C10.9674 18.4313 11.2545 18.9303 11.7401 19.0603C11.8181 19.0813 11.8972 19.0913 11.9754 19.0913C12.3764 19.0913 12.7445 18.824 12.8527 18.4176L13.8909 14.5458H17.2727C17.7745 14.5458 18.1819 14.1395 18.1819 13.6368C18.1819 13.134 17.7745 12.7277 17.2727 12.7277H14.3791L15.8418 7.27317H19.0909C19.5928 7.27317 19.9999 6.86684 19.9999 6.36397C19.9999 5.86126 19.5928 5.45493 19.0909 5.45493ZM12.4963 12.7277H6.03998L7.50266 7.27317H13.9591L12.4963 12.7277Z" fill="#705042"/>
</svg>
