<svg width="40" height="40" viewBox="0 0 40 40" fill="none" xmlns="http://www.w3.org/2000/svg">
<rect x="0.5" y="0.5" width="39" height="39" rx="4.5" stroke="#ED5F25"/>
<path d="M15.4919 11.1341C15.8461 10.7675 16.4356 10.7675 16.8022 11.1341C17.1564 11.4883 17.1564 12.0778 16.8022 12.4312L10.1581 19.0753H32.0827C32.5938 19.0761 33 19.4823 33 19.9934C33 20.5045 32.5938 20.9239 32.0827 20.9239H10.1581L16.8022 27.5556C17.1564 27.9222 17.1564 28.5125 16.8022 28.8659C16.4356 29.2325 15.8453 29.2325 15.4919 28.8659L7.27495 20.649C6.90835 20.2948 6.90835 19.7052 7.27495 19.3519L15.4919 11.1341Z" fill="#ED5F25"/>
</svg>
