<svg width="50" height="50" viewBox="0 0 50 50" fill="none" xmlns="http://www.w3.org/2000/svg">
<g clip-path="url(#clip0)">
<path d="M10.9913 21.3398C11.1252 21.3398 11.2614 21.3428 11.3989 21.3478C12.7219 19.9841 14.3703 18.9958 16.1668 18.4626C15.7546 14.1531 17.6607 10.0298 19.5477 7.10383C19.7755 6.75051 20.25 6.6554 20.5973 6.8925C20.9321 7.12112 21.0234 7.57424 20.8035 7.91516C19.0797 10.5871 17.338 14.3081 17.6377 18.1343C18.1811 18.0514 18.7328 18.0083 19.2887 18.0083C20.9518 18.0083 22.5294 18.3803 23.9439 19.0444V17.7058L20.3495 14.1115C20.0601 13.822 20.0308 13.3466 20.3113 13.0487C20.6017 12.7403 21.0872 12.7347 21.3848 13.0322L23.944 15.5913V11.5862C23.944 11.1768 24.2593 10.8198 24.6685 10.8076C25.0918 10.7948 25.4391 11.1344 25.4391 11.5549V15.5913L27.9982 13.0322C28.2901 12.7402 28.7634 12.7402 29.0553 13.0322C29.3472 13.3241 29.3473 13.7975 29.0553 14.0893L25.439 17.7056V19.8943C26.7746 20.7993 27.901 21.9906 28.7306 23.3787C28.8445 20.2831 29.7965 17.6343 31.5839 15.4663C31.6021 15.4444 31.621 15.4229 31.6394 15.401C30.7799 9.69651 26.2256 4.6304 24.6901 3.06213C24.2913 3.4679 23.6904 4.10725 23.0067 4.92815C22.747 5.23997 22.2852 5.28684 21.9676 5.0343L21.9673 5.03411C21.6384 4.77258 21.5907 4.29192 21.8596 3.96887C23.1442 2.42541 24.1383 1.50637 24.1849 1.4635C24.4708 1.20032 24.9111 1.20032 25.1971 1.4635C25.465 1.70989 31.3745 7.2135 32.9134 14.087C35.2497 11.9939 38.552 10.4933 42.5887 9.70881C46.2275 9.00149 49.1523 9.11409 49.2749 9.11916C49.6633 9.13538 49.9743 9.44651 49.9905 9.83479C49.9956 9.95745 50.108 12.8823 49.401 16.5209C48.4536 21.3961 46.4626 25.2015 43.6435 27.5257C43.3044 27.8052 42.9523 28.0618 42.5898 28.3005C47.2585 32.166 49.8206 37.7994 49.9336 38.0515C50.0926 38.4062 49.9533 38.8235 49.6133 39.0114C49.3203 39.1735 43.3565 42.4248 36.9757 42.4245C36.0655 42.4244 35.1465 42.3568 34.2344 42.2061C32.5198 46.0486 28.6634 48.7336 24.1912 48.7336C19.9435 48.7336 16.2511 46.3113 14.4219 42.7756C13.3193 43.1384 12.1686 43.3226 10.9912 43.3226C9.05548 43.3226 7.17951 42.8211 5.51916 41.8656C5.14562 41.6506 5.03791 41.1601 5.27912 40.8029C5.50021 40.4756 5.93517 40.3808 6.27785 40.5772C7.70852 41.3971 9.32404 41.8274 10.9912 41.8274C11.9627 41.8274 12.9123 41.6806 13.8246 41.395C13.4205 40.2516 13.1997 39.0223 13.1997 37.7422C13.1997 33.4086 15.7209 29.6532 19.3734 27.8646C17.8398 24.9813 14.9449 23.0843 11.6559 22.8575C11.4311 22.8425 11.2075 22.8348 10.9912 22.8348C5.755 22.8348 1.49504 27.0948 1.49504 32.331C1.49504 34.4642 2.20646 36.5162 3.51115 38.182C3.75383 38.4918 3.72052 38.9351 3.42921 39.1999L3.42902 39.2001C3.10588 39.4939 2.60324 39.4473 2.3339 39.1035C0.823551 37.1754 -7.62939e-05 34.7999 -7.62939e-05 32.331C1.90735e-05 26.2705 4.93078 21.3398 10.9913 21.3398ZM42.6886 26.3753C45.9019 23.7286 47.3106 19.4196 47.9264 16.2707C48.4054 13.8217 48.4931 11.6716 48.5027 10.6067C47.4444 10.6158 45.3142 10.7023 42.8739 11.1764C37.1503 12.2887 34.2025 14.6404 32.7375 16.4173C30.4494 19.1928 29.7153 22.9181 30.5477 27.5048L32.8332 25.2193V18.5781C32.8332 18.1652 33.1679 17.8305 33.5808 17.8305C33.9937 17.8305 34.3283 18.1652 34.3283 18.5781V23.724L37.6191 20.4333V15.319C37.6191 14.9061 37.9537 14.5714 38.3666 14.5714C38.7795 14.5714 39.1142 14.9061 39.1142 15.319V18.9382L41.9684 16.084C42.2604 15.792 42.7337 15.792 43.0255 16.084C43.3175 16.376 43.3175 16.8493 43.0255 17.1411L40.1713 19.9953H43.7904C44.2033 19.9953 44.538 20.33 44.538 20.7429C44.538 21.1558 44.2033 21.4905 43.7904 21.4905H38.6762L35.3855 24.7812H40.5318C40.9446 24.7812 41.2793 25.1158 41.2793 25.5287C41.2793 25.9416 40.9446 26.2763 40.5318 26.2763H33.8905L31.605 28.5618C36.1897 29.3941 39.9136 28.6609 42.6886 26.3753ZM37.1147 33.5192L41.6098 31.2735C41.9792 31.089 42.4281 31.2388 42.6127 31.608C42.7972 31.9775 42.6474 32.4264 42.2781 32.611L39.1205 34.1884L44.285 35.9119C44.6766 36.0426 44.8881 36.466 44.7574 36.8576C44.6529 37.1708 44.3613 37.3688 44.0485 37.3688C43.97 37.3688 43.8903 37.3563 43.8117 37.3301L38.5272 35.5666L40.1846 38.8841C40.3691 39.2535 40.2193 39.7025 39.85 39.887C39.7427 39.9406 39.6287 39.9659 39.5165 39.9659C39.2422 39.9659 38.978 39.8144 38.8472 39.5524L36.5216 34.8973L34.6178 34.2619C34.984 35.3562 35.1828 36.5264 35.1828 37.7422C35.1828 38.7939 35.0341 39.8114 34.757 40.775C40.3291 41.5751 46.3293 38.9628 48.2564 38.0251C47.423 36.3983 44.9548 32.021 41.1902 29.0939C39.3956 29.9572 37.3609 30.3918 35.0953 30.3918C34.1521 30.3918 33.1678 30.3147 32.1458 30.1645C32.7882 30.8385 33.3454 31.5943 33.8015 32.4135L37.1147 33.5192ZM14.695 37.7423C14.695 42.9785 18.955 47.2385 24.1912 47.2385C29.4275 47.2385 33.6875 42.9784 33.6875 37.7423C33.6875 32.5061 29.4275 28.246 24.1912 28.246C18.955 28.246 14.695 32.5061 14.695 37.7423ZM20.7647 27.2985C21.8435 26.9436 22.9952 26.7508 24.1912 26.7508C25.7964 26.7508 27.3222 27.0968 28.6984 27.718C28.0707 23.0857 24.0905 19.5032 19.2889 19.5032C17.1184 19.5032 15.02 20.2518 13.3463 21.5929C16.5349 22.2857 19.2548 24.3617 20.7647 27.2985Z" fill="#705042"/>
<path d="M21.3337 34.7092C23.2438 34.7092 24.7979 36.2632 24.7979 38.1734C24.7979 40.0835 23.2438 41.6376 21.3337 41.6376C19.4235 41.6376 17.8694 40.0835 17.8694 38.1734C17.8694 36.2632 19.4234 34.7092 21.3337 34.7092ZM21.3337 40.1423C22.4194 40.1423 23.3026 39.259 23.3026 38.1734C23.3026 37.0877 22.4194 36.2044 21.3337 36.2044C20.2479 36.2044 19.3645 37.0877 19.3645 38.1734C19.3645 39.2589 20.2479 40.1423 21.3337 40.1423Z" fill="#705042"/>
<path d="M11.1895 24.283C13.4298 24.283 15.1191 25.3029 15.1191 26.6553C15.1191 28.0078 13.4298 29.0277 11.1895 29.0277C8.94912 29.0277 7.25976 28.0078 7.25976 26.6553C7.25976 25.3029 8.94922 24.283 11.1895 24.283ZM9.27939 27.1384C9.77002 27.3889 10.4661 27.5326 11.1896 27.5326C11.913 27.5326 12.6091 27.3889 13.0997 27.1384C13.4844 26.9419 13.6241 26.7419 13.6241 26.6553C13.6241 26.5688 13.4845 26.3687 13.0997 26.1722C12.6091 25.9217 11.913 25.7781 11.1896 25.7781C10.4661 25.7781 9.77002 25.9217 9.27939 26.1722C8.89463 26.3687 8.75498 26.5688 8.75498 26.6553C8.75498 26.7419 8.89463 26.9419 9.27939 27.1384Z" fill="#705042"/>
</g>
<defs>
<clipPath id="clip0">
<rect width="50" height="50" fill="white" transform="matrix(-1 0 0 1 50 0)"/>
</clipPath>
</defs>
</svg>
