<svg width="60" height="60" viewBox="0 0 60 60" fill="none" xmlns="http://www.w3.org/2000/svg">
<path d="M56.9932 25.1135C56.3862 25.1135 55.8945 25.6058 55.8945 26.2121V30.1274C55.8945 32.3741 54.0663 34.2023 51.8196 34.2023H45.5574C45.266 34.2023 44.9868 34.3176 44.7805 34.5236L37.1886 42.1159V35.3009C37.1886 34.6939 36.6966 34.2023 36.09 34.2023H20.3603C18.1136 34.2023 16.2854 32.3744 16.2854 30.1274V13.5081C16.2854 11.2614 18.1136 9.43359 20.3603 9.43359H51.8196C54.0663 9.43359 55.8945 11.2614 55.8945 13.5081V17.4231C55.8945 18.03 56.3862 18.5217 56.9932 18.5217C57.5995 18.5217 58.0918 18.03 58.0918 17.4231V13.5081C58.0918 10.0499 55.2783 7.23633 51.8196 7.23633H20.3603C16.9017 7.23633 14.0881 10.0499 14.0881 13.5081V27.6225H6.09179C3.74861 27.6225 1.8418 29.5286 1.8418 31.8725V41.9964C1.8418 44.3402 3.74861 46.2464 6.09179 46.2464H9.45189L14.897 51.6918C15.1074 51.9023 15.3886 52.0138 15.6743 52.0138C15.8157 52.0138 15.9589 51.9864 16.0945 51.9301C16.5051 51.7601 16.7729 51.3598 16.7729 50.9152V46.2464H25.2564C27.5999 46.2464 29.5064 44.3402 29.5064 41.9964V36.3995H34.9913V44.768C34.9913 45.2126 35.2591 45.6129 35.6697 45.7829C35.8054 45.8392 35.9482 45.8666 36.09 45.8666C36.376 45.8666 36.6568 45.7551 36.8669 45.5446L46.0123 36.3995H51.8196C55.2783 36.3995 58.0918 33.586 58.0918 30.1274V26.2121C58.0918 25.6058 57.5995 25.1135 56.9932 25.1135ZM27.3095 41.9964C27.3095 43.1287 26.3887 44.0491 25.2564 44.0491H15.6743C15.0673 44.0491 14.5756 44.5414 14.5756 45.1477V48.263L10.6837 44.3711C10.4777 44.1651 10.1983 44.0491 9.90679 44.0491H6.09179C4.95985 44.0491 4.03906 43.1287 4.03906 41.9964V31.8725C4.03906 30.7405 4.95985 29.8197 6.09179 29.8197H14.0881V30.1274C14.0881 33.586 16.9017 36.3995 20.3603 36.3995H27.3095V41.9964Z" fill="#705042"/>
<path d="M46.8033 14.4355H25.3799C24.7732 14.4355 24.2812 14.9275 24.2812 15.5342C24.2812 16.1412 24.7732 16.6328 25.3799 16.6328H46.8033C47.41 16.6328 47.9019 16.1412 47.9019 15.5342C47.9019 14.9275 47.41 14.4355 46.8033 14.4355Z" fill="#705042"/>
<path d="M47.9019 21.4673C47.9019 20.8606 47.41 20.3687 46.8033 20.3687H25.3799C24.7732 20.3687 24.2812 20.8606 24.2812 21.4673C24.2812 22.0743 24.7732 22.5659 25.3799 22.5659H46.8033C47.41 22.5659 47.9019 22.0743 47.9019 21.4673Z" fill="#705042"/>
<path d="M25.3799 26.3013C24.7732 26.3013 24.2812 26.7932 24.2812 27.3999C24.2812 28.0069 24.7732 28.4985 25.3799 28.4985H37.7395C38.3461 28.4985 38.8381 28.0069 38.8381 27.3999C38.8381 26.7932 38.3461 26.3013 37.7395 26.3013H25.3799Z" fill="#705042"/>
<path d="M56.9971 20.7188C56.3921 20.7188 55.8984 21.2124 55.8984 21.8174C55.8984 22.4227 56.3921 22.916 56.9971 22.916C57.602 22.916 58.0957 22.4227 58.0957 21.8174C58.0957 21.2124 57.602 20.7188 56.9971 20.7188Z" fill="#705042"/>
</svg>
