<svg width="20" height="20" viewBox="0 0 20 20" fill="none" xmlns="http://www.w3.org/2000/svg">
<path d="M18.9971 8.37116C18.7947 8.37116 18.6309 8.53527 18.6309 8.73737V10.0425C18.6309 10.7914 18.0215 11.4008 17.2726 11.4008H15.1852C15.088 11.4008 14.995 11.4392 14.9262 11.5079L12.3955 14.0386V11.767C12.3955 11.5646 12.2316 11.4008 12.0293 11.4008H6.78611C6.03721 11.4008 5.42781 10.7915 5.42781 10.0425V4.50272C5.42781 3.75381 6.03721 3.14453 6.78611 3.14453H17.2726C18.0215 3.14453 18.6309 3.75381 18.6309 4.50272V5.80768C18.6309 6.01002 18.7947 6.1739 18.9971 6.1739C19.1992 6.1739 19.3633 6.01002 19.3633 5.80768V4.50272C19.3633 3.34995 18.4254 2.41211 17.2726 2.41211H6.78611C5.63323 2.41211 4.69539 3.34995 4.69539 4.50272V9.20749H2.02995C1.24889 9.20749 0.613281 9.84287 0.613281 10.6242V13.9988C0.613281 14.7801 1.24889 15.4155 2.02995 15.4155H3.14998L4.96501 17.2306C5.03517 17.3008 5.12889 17.3379 5.22411 17.3379C5.27126 17.3379 5.31898 17.3288 5.36418 17.31C5.50105 17.2534 5.59032 17.1199 5.59032 16.9717V15.4155H8.41815C9.19933 15.4155 9.83482 14.7801 9.83482 13.9988V12.1332H11.6631V14.9227C11.6631 15.0709 11.7524 15.2043 11.8893 15.261C11.9345 15.2797 11.9821 15.2889 12.0293 15.2889C12.1247 15.2889 12.2183 15.2517 12.2883 15.1815L15.3368 12.1332H17.2726C18.4254 12.1332 19.3633 11.1953 19.3633 10.0425V8.73737C19.3633 8.53527 19.1992 8.37116 18.9971 8.37116ZM9.10251 13.9988C9.10251 14.3762 8.79558 14.683 8.41815 14.683H5.22411C5.02178 14.683 4.8579 14.8471 4.8579 15.0492V16.0877L3.56059 14.7904C3.49193 14.7217 3.39877 14.683 3.30161 14.683H2.02995C1.65263 14.683 1.3457 14.3762 1.3457 13.9988V10.6242C1.3457 10.2468 1.65263 9.93992 2.02995 9.93992H4.69539V10.0425C4.69539 11.1953 5.63323 12.1332 6.78611 12.1332H9.10251V13.9988Z" fill="#705042"/>
<path d="M15.6011 4.81201H8.45996C8.25774 4.81201 8.09375 4.97601 8.09375 5.17822C8.09375 5.38055 8.25774 5.54443 8.45996 5.54443H15.6011C15.8033 5.54443 15.9673 5.38055 15.9673 5.17822C15.9673 4.97601 15.8033 4.81201 15.6011 4.81201Z" fill="#705042"/>
<path d="M15.9673 7.15576C15.9673 6.95354 15.8033 6.78955 15.6011 6.78955H8.45996C8.25774 6.78955 8.09375 6.95354 8.09375 7.15576C8.09375 7.35809 8.25774 7.52197 8.45996 7.52197H15.6011C15.8033 7.52197 15.9673 7.35809 15.9673 7.15576Z" fill="#705042"/>
<path d="M8.45996 8.76709C8.25774 8.76709 8.09375 8.93108 8.09375 9.1333C8.09375 9.33563 8.25774 9.49951 8.45996 9.49951H12.5798C12.782 9.49951 12.946 9.33563 12.946 9.1333C12.946 8.93108 12.782 8.76709 12.5798 8.76709H8.45996Z" fill="#705042"/>
<path d="M18.999 6.90625C18.7974 6.90625 18.6328 7.07082 18.6328 7.27246C18.6328 7.47422 18.7974 7.63867 18.999 7.63867C19.2007 7.63867 19.3652 7.47422 19.3652 7.27246C19.3652 7.07082 19.2007 6.90625 18.999 6.90625Z" fill="#705042"/>
</svg>
