<svg width="50" height="50" viewBox="0 0 50 50" fill="none" xmlns="http://www.w3.org/2000/svg">
<g clip-path="url(#clip0)">
<path d="M49.8093 28.5142C49.8077 28.4843 49.8049 28.4543 49.8006 28.4244L47.2945 10.9862C47.2518 10.6894 47.0752 10.4286 46.8156 10.2789C46.556 10.1292 46.2418 10.107 45.9634 10.2189L34.4299 14.8558C33.9294 15.057 33.6869 15.6258 33.888 16.1262C34.0893 16.6268 34.6582 16.8693 35.1585 16.6681L45.5378 12.4951L47.8504 28.5865C47.8517 28.6319 47.8562 28.6774 47.8639 28.7229C48.3696 31.6996 47.8159 34.78 46.3053 37.3966C44.5656 40.4099 41.7533 42.5635 38.3862 43.4607C35.0182 44.3581 31.4986 43.8912 28.4753 42.1459C28.4544 42.1338 28.4329 42.1237 28.4116 42.1133C29.0597 41.6207 29.6694 41.0874 30.238 40.5169L41.6714 37.4533C42.1925 37.3138 42.5017 36.7781 42.362 36.2571C42.2225 35.7362 41.6866 35.4269 41.1659 35.5665L32.3685 37.9238C33.3352 36.4857 34.0914 34.8997 34.6082 33.203L42.4571 31.0999C42.9782 30.9604 43.2873 30.4247 43.1477 29.9037C43.0081 29.3827 42.4722 29.0735 41.9516 29.2131L36.1764 30.7606L38.3481 26.9989L42.9374 25.7693C43.4585 25.6297 43.7677 25.0941 43.6281 24.5731C43.4884 24.0521 42.9526 23.7428 42.432 23.8824L39.7293 24.6067L41.8075 21.0072C42.0772 20.54 41.9171 19.9427 41.45 19.6731C40.9828 19.4033 40.3856 19.5634 40.1159 20.0305L38.0378 23.6299L37.3136 20.9273C37.174 20.4063 36.6383 20.097 36.1175 20.2366C35.5964 20.3762 35.2872 20.9118 35.4269 21.4328L36.6566 26.0222L35.3859 28.2232C35.4234 25.0969 34.6235 22.0074 33.0202 19.2307C31.0014 15.734 27.8154 13.0184 24.045 11.5797C24.0389 11.5771 24.0325 11.5744 24.0263 11.5718L19.6072 9.77824C19.107 9.57541 18.5378 9.81623 18.335 10.3159C18.1322 10.8158 18.3729 11.3854 18.8727 11.5882L23.2516 13.3654C23.2714 13.3744 23.2916 13.3828 23.3121 13.3906C26.6802 14.6661 29.5273 17.0869 31.3286 20.2071C33.4255 23.8392 33.9786 28.0727 32.8861 32.1281C31.8782 35.869 29.5807 39.0442 26.3717 41.1656L24.7326 38.3268L28.2861 25.0655C28.4257 24.5444 28.1165 24.0089 27.5954 23.8693C27.0741 23.7297 26.539 24.0389 26.3993 24.5599L23.3516 35.9347L19.7358 29.6719L22.201 20.4719C22.3407 19.9508 22.0315 19.4154 21.5104 19.2757C20.9892 19.1361 20.4539 19.4453 20.3143 19.9663L18.3547 27.2796L15.5044 22.3428L16.9891 16.8023C17.1287 16.2812 16.8196 15.7457 16.2985 15.6061C15.7772 15.4665 15.242 15.7757 15.1024 16.2967L14.1232 19.9505L11.423 15.2736C11.1534 14.8065 10.556 14.6463 10.0889 14.9161C9.62171 15.1858 9.46165 15.7831 9.73148 16.2502L12.4317 20.9271L8.77796 19.9481C8.25677 19.8084 7.72151 20.1177 7.58187 20.6387C7.44222 21.1598 7.7514 21.6952 8.27249 21.8349L13.8129 23.3196L16.6632 28.2564L9.35013 26.2969C8.82894 26.1572 8.29368 26.4665 8.15403 26.9875C8.01439 27.5086 8.32357 28.0441 8.84466 28.1837L18.0445 30.6488L21.6603 36.9116L10.2858 33.8639C9.76448 33.7242 9.22933 34.0335 9.08968 34.5545C8.95003 35.0756 9.25921 35.6111 9.7803 35.7507L23.0415 39.304L24.6804 42.1426C17.3001 45.8209 8.21741 43.1717 4.05169 35.9566C2.23079 32.8027 1.5636 29.0898 2.17308 25.5018C2.18138 25.4533 2.18577 25.405 2.18655 25.3569L4.97532 5.94817L11.4451 8.57405C11.9454 8.77698 12.5145 8.53616 12.7173 8.03635C12.9201 7.53645 12.6794 6.96692 12.1796 6.76409L4.55345 3.66877C4.27523 3.55598 3.96019 3.57727 3.69983 3.72678C3.43939 3.87629 3.26224 4.13743 3.21946 4.43489L0.234698 25.2038C0.229913 25.2367 0.226983 25.2697 0.225616 25.3025C-0.422626 29.2983 0.333429 33.4233 2.3597 36.9328C5.62269 42.5847 11.5681 45.7459 17.6798 45.7458C20.3791 45.7458 23.1104 45.1268 25.6576 43.8357L26.8579 45.9146C27.0389 46.2279 27.3671 46.403 27.7047 46.403C27.8703 46.403 28.0383 46.3609 28.1921 46.2721C28.6593 46.0025 28.8194 45.4051 28.5495 44.938L28.1045 44.1671C30.2625 45.2874 32.6163 45.8606 34.9983 45.8606C36.2961 45.8606 37.6024 45.6909 38.8892 45.3481C42.7613 44.3162 45.9959 41.8391 47.997 38.3732C49.7147 35.3982 50.3565 31.9017 49.8093 28.5142Z" fill="#705042"/>
<path d="M16.1388 8.45313C15.9572 8.27148 15.7053 8.16699 15.4483 8.16699C15.1914 8.16699 14.9395 8.27148 14.7578 8.45313C14.5762 8.63574 14.4717 8.88672 14.4717 9.14365C14.4717 9.40147 14.5761 9.65254 14.7578 9.83516C14.9395 10.0169 15.1914 10.1213 15.4483 10.1213C15.7052 10.1213 15.9572 10.0168 16.1388 9.83516C16.3214 9.65254 16.425 9.40049 16.425 9.14365C16.425 8.88682 16.3214 8.63574 16.1388 8.45313Z" fill="#705042"/>
<path d="M43.3481 17.028L43.3422 17.02C43.0252 16.5836 42.4144 16.4867 41.9781 16.8037C41.5416 17.1206 41.4447 17.7314 41.7617 18.1678L41.7675 18.1757C41.9586 18.4387 42.2566 18.5785 42.5586 18.5785C42.7576 18.5785 42.9584 18.5179 43.1318 18.3921C43.5681 18.0752 43.665 17.4644 43.3481 17.028Z" fill="#705042"/>
</g>
<defs>
<clipPath id="clip0">
<rect width="50" height="50" fill="white"/>
</clipPath>
</defs>
</svg>
