<svg width="20" height="20" viewBox="0 0 20 20" fill="none" xmlns="http://www.w3.org/2000/svg">
<g clip-path="url(#clip0)">
<path d="M19.9239 11.4056C19.9233 11.3937 19.9222 11.3817 19.9204 11.3697L18.918 4.39444C18.9009 4.27573 18.8303 4.17143 18.7264 4.11155C18.6226 4.05166 18.4969 4.04276 18.3856 4.08752L13.7722 5.94229C13.572 6.02276 13.475 6.2503 13.5554 6.45045C13.6359 6.65069 13.8635 6.74768 14.0636 6.66721L18.2153 4.99803L19.1404 11.4346C19.1409 11.4527 19.1427 11.4709 19.1458 11.4891C19.348 12.6798 19.1266 13.912 18.5223 14.9586C17.8264 16.1639 16.7015 17.0254 15.3547 17.3842C14.0075 17.7432 12.5996 17.5565 11.3903 16.8583C11.382 16.8535 11.3734 16.8494 11.3648 16.8453C11.6241 16.6483 11.8679 16.4349 12.0954 16.2067L16.6688 14.9813C16.8772 14.9255 17.0009 14.7112 16.945 14.5028C16.8892 14.2944 16.6748 14.1707 16.4666 14.2266L12.9476 15.1695C13.3343 14.5942 13.6368 13.9599 13.8435 13.2812L16.983 12.4399C17.1915 12.3841 17.3151 12.1699 17.2593 11.9615C17.2034 11.7531 16.9891 11.6294 16.7808 11.6852L14.4708 12.3042L15.3394 10.7996L17.1752 10.3077C17.3836 10.2519 17.5073 10.0376 17.4514 9.8292C17.3956 9.6208 17.1812 9.49709 16.973 9.55295L15.8919 9.84264L16.7232 8.40284C16.8311 8.21596 16.767 7.97705 16.5802 7.8692C16.3933 7.76131 16.1544 7.82534 16.0466 8.01217L15.2153 9.45194L14.9256 8.37088C14.8698 8.16248 14.6555 8.03877 14.4472 8.09463C14.2388 8.15045 14.1151 8.36471 14.1709 8.57311L14.6628 10.4089L14.1545 11.2892C14.1695 10.0387 13.8496 8.80295 13.2083 7.69225C12.4008 6.29358 11.1263 5.20733 9.61821 4.63186C9.61575 4.6308 9.61321 4.62975 9.61071 4.6287L7.84306 3.91127C7.64298 3.83014 7.41532 3.92647 7.33419 4.12635C7.25306 4.32631 7.34935 4.55413 7.54927 4.63526L9.30083 5.34612C9.30876 5.34975 9.31685 5.35311 9.32505 5.35623C10.6723 5.86643 11.8111 6.83475 12.5317 8.08284C13.3704 9.53565 13.5917 11.229 13.1546 12.8512C12.7515 14.3476 11.8325 15.6176 10.5489 16.4662L9.89325 15.3307L11.3146 10.0262C11.3705 9.81772 11.2468 9.60354 11.0384 9.54768C10.8298 9.49186 10.6158 9.61553 10.5599 9.82393L9.34083 14.3739L7.8945 11.8687L8.8806 8.18873C8.93646 7.9803 8.81279 7.76612 8.60435 7.71026C8.39587 7.6544 8.18177 7.77811 8.12591 7.98651L7.34208 10.9118L6.20197 8.93709L6.79583 6.72088C6.85169 6.51244 6.72802 6.29827 6.51958 6.24241C6.31107 6.18659 6.097 6.31026 6.04114 6.51866L5.64947 7.98018L4.56939 6.1094C4.46154 5.92256 4.22259 5.8585 4.03575 5.96643C3.84888 6.07428 3.78486 6.31323 3.89279 6.50006L4.97286 8.3708L3.51138 7.9792C3.3029 7.92334 3.0888 8.04705 3.03294 8.25545C2.97708 8.46389 3.10075 8.67807 3.30919 8.73393L5.52536 9.3278L6.66548 11.3025L3.74025 10.5187C3.53177 10.4629 3.31767 10.5866 3.26181 10.795C3.20595 11.0034 3.32962 11.2176 3.53806 11.2735L7.21798 12.2595L8.66431 14.7646L4.1145 13.5455C3.90599 13.4897 3.69193 13.6134 3.63607 13.8218C3.58021 14.0302 3.70388 14.2444 3.91232 14.3003L9.21681 15.7216L9.87236 16.857C6.92025 18.3283 3.28716 17.2687 1.62087 14.3826C0.892512 13.121 0.625637 11.6359 0.869426 10.2007C0.872746 10.1813 0.874504 10.162 0.874817 10.1427L1.99032 2.37924L4.57825 3.42959C4.77837 3.51077 5.00599 3.41444 5.08712 3.21452C5.16825 3.01455 5.07197 2.78674 4.87204 2.70561L1.82157 1.46748C1.71029 1.42237 1.58427 1.43088 1.48013 1.49069C1.37595 1.55049 1.30509 1.65495 1.28798 1.77393L0.0940746 10.0815C0.0921605 10.0947 0.0909886 10.1079 0.0904418 10.121C-0.168855 11.7193 0.133567 13.3693 0.944075 14.7731C2.24927 17.0339 4.62743 18.2983 7.07212 18.2983C8.15185 18.2983 9.24435 18.0507 10.2633 17.5342L10.7434 18.3658C10.8158 18.4911 10.947 18.5612 11.0821 18.5612C11.1483 18.5612 11.2155 18.5443 11.277 18.5088C11.4639 18.401 11.5279 18.162 11.42 17.9752L11.242 17.6668C12.1052 18.1149 13.0467 18.3442 13.9995 18.3442C14.5186 18.3442 15.0411 18.2764 15.5559 18.1392C17.1047 17.7265 18.3986 16.7356 19.199 15.3492C19.8861 14.1592 20.1428 12.7606 19.9239 11.4056Z" fill="#705042"/>
<path d="M6.4559 3.3813C6.38328 3.30864 6.2825 3.26685 6.17973 3.26685C6.07695 3.26685 5.97617 3.30864 5.90352 3.3813C5.83086 3.45435 5.78906 3.55474 5.78906 3.65751C5.78906 3.76063 5.83082 3.86106 5.90352 3.93411C5.97617 4.00681 6.07695 4.04856 6.17973 4.04856C6.28246 4.04856 6.38328 4.00677 6.4559 3.93411C6.52895 3.86106 6.57039 3.76024 6.57039 3.65751C6.57039 3.55478 6.52895 3.45435 6.4559 3.3813Z" fill="#705042"/>
<path d="M17.3381 6.81118L17.3357 6.80797C17.2089 6.6334 16.9646 6.59465 16.7901 6.72145C16.6155 6.84821 16.5767 7.09254 16.7035 7.26708L16.7058 7.27024C16.7823 7.37547 16.9015 7.43137 17.0223 7.43137C17.1019 7.43137 17.1822 7.40712 17.2515 7.3568C17.4261 7.23004 17.4648 6.98575 17.3381 6.81118Z" fill="#705042"/>
</g>
<defs>
<clipPath id="clip0">
<rect width="20" height="20" fill="white"/>
</clipPath>
</defs>
</svg>
