<svg width="200" height="200" viewBox="0 0 200 200" fill="none" xmlns="http://www.w3.org/2000/svg">
<path d="M190.526 7.5407C189.916 7.38309 189.27 7.4406 188.697 7.70355C188.123 7.9665 187.658 8.41883 187.38 8.98445C187.13 9.49695 180.944 21.6594 153.847 35.9688C153.473 36.1323 153.14 36.3776 152.873 36.6867C152.606 36.9957 152.412 37.3607 152.305 37.7548C150.611 44.0958 148.315 50.2603 145.448 56.1641C143.866 52.7371 142.806 49.0925 142.303 45.3516C142.243 44.9369 142.089 44.5414 141.853 44.1958C141.616 43.8501 141.303 43.5634 140.938 43.3579C140.573 43.1524 140.165 43.0335 139.747 43.0105C139.328 42.9875 138.91 43.0609 138.525 43.2251C131.362 46.2766 123.567 49.1829 115.355 51.861C104.465 55.3411 93.9586 59.9204 83.9967 65.5282C83.4204 65.8588 82.9843 66.3882 82.7702 67.0173C81.5348 70.6423 80.2004 74.0662 78.7671 77.2891C78.8264 76.2141 78.9056 75.0714 79.0046 73.861C79.0474 73.3444 78.9426 72.8263 78.7023 72.367C78.4619 71.9077 78.096 71.5262 77.6471 71.2669C77.1982 71.0077 76.6848 70.8814 76.1669 70.9028C75.649 70.9241 75.1478 71.0923 74.7217 71.3876C46.9421 90.6251 31.8046 117.777 27.103 156.734C19.9853 164.18 13.733 172.407 8.4655 181.258C7.48159 182.93 7.17334 184.914 7.60374 186.806C8.03415 188.697 9.17071 190.353 10.7811 191.434C11.971 192.201 13.3563 192.609 14.7718 192.611H139.772C140.497 192.611 141.192 192.323 141.705 191.81C142.218 191.297 142.506 190.602 142.506 189.877C142.506 189.151 142.218 188.456 141.705 187.943C141.192 187.43 140.497 187.142 139.772 187.142H22.2889C27.0367 179.496 32.592 172.381 38.8593 165.92C65.8139 164.599 128.317 159.155 152.881 136.945C154.664 135.332 156.359 133.625 157.961 131.831C158.282 131.474 158.503 131.039 158.602 130.569C158.701 130.099 158.675 129.611 158.526 129.155C158.376 128.698 158.11 128.289 157.752 127.968C157.395 127.648 156.959 127.427 156.489 127.328C155.903 127.206 155.323 127.078 154.747 126.949C156.691 126.674 158.875 126.413 161.283 126.197C161.682 126.16 162.069 126.036 162.416 125.834C162.763 125.631 163.061 125.355 163.289 125.025C183.256 96.0501 189.003 73.5407 192.565 10.3376C192.6 9.70772 192.416 9.08518 192.045 8.57544C191.673 8.06571 191.137 7.70014 190.526 7.5407ZM13.1889 184.013C30.2202 154.794 61.7358 132.589 95.0999 109.084C102.081 104.167 110 98.5938 117.589 93.0204C117.925 92.7714 118.332 92.6367 118.75 92.636C118.855 92.6362 118.959 92.6445 119.062 92.661C119.315 92.7001 119.558 92.7893 119.776 92.9235C119.994 93.0576 120.182 93.234 120.331 93.4423C120.635 93.8599 120.761 94.3805 120.684 94.891C120.606 95.4014 120.33 95.8606 119.916 96.1688C112.292 101.752 104.353 107.344 97.3436 112.278C64.2764 135.575 33.0421 157.58 16.4467 186.174C16.3149 186.401 16.1381 186.599 15.9271 186.756C15.7161 186.913 15.4754 187.026 15.2195 187.087C14.9637 187.148 14.6982 187.156 14.439 187.111C14.1799 187.066 13.9327 186.969 13.7124 186.825C13.2895 186.506 13.0012 186.041 12.9043 185.521C12.8074 185 12.909 184.462 13.1889 184.013ZM159.505 120.87C153.716 121.352 147.982 122.346 142.369 123.839C141.818 124.006 141.334 124.342 140.985 124.8C140.637 125.258 140.442 125.814 140.427 126.389C140.413 126.964 140.58 127.529 140.905 128.004C141.231 128.479 141.697 128.839 142.239 129.033C144.87 129.97 147.675 130.824 150.619 131.577C150.15 132.025 149.689 132.459 149.212 132.884C127.319 152.68 70.2858 158.486 44.6218 160.117C60.4218 144.988 80.1046 131.117 100.5 116.75C107.531 111.802 115.484 106.194 123.142 100.577C124.718 99.4113 125.771 97.6713 126.072 95.7344C126.373 93.7975 125.898 91.8201 124.75 90.2313C124.176 89.4396 123.451 88.7693 122.617 88.259C121.782 87.7487 120.855 87.4085 119.889 87.258C118.923 87.1076 117.936 87.1498 116.987 87.3823C116.037 87.6147 115.142 88.0329 114.355 88.6126C106.801 94.1532 98.9108 99.7063 91.9499 104.616C70.7249 119.569 50.2405 134.003 33.5624 150.142C38.6483 118.861 51.3874 96.0579 73.1999 79.2673C73.0431 82.4553 73.0844 85.65 73.3233 88.8329C73.3808 89.4052 73.6172 89.9448 73.999 90.3749C74.3808 90.8051 74.8885 91.1039 75.45 91.2288C76.0114 91.3538 76.5979 91.2985 77.1261 91.0709C77.6543 90.8433 78.0973 90.4549 78.3921 89.961C82.1315 83.5545 85.2199 76.7894 87.6108 69.7673C96.9883 64.581 106.851 60.3253 117.058 57.061C124.23 54.7173 131.095 52.2079 137.516 49.5766C139.5 58.6891 143.337 63.2876 143.52 63.5001C143.805 63.835 144.167 64.0962 144.574 64.2616C144.982 64.4269 145.423 64.4916 145.861 64.45C146.299 64.4085 146.72 64.2619 147.089 64.0229C147.458 63.7838 147.764 63.4592 147.981 63.0766C151.972 55.8981 155.089 48.2671 157.264 40.347C172.648 32.1188 181.57 24.4688 186.566 19.0813C183.066 73.4907 177.241 94.8048 159.505 120.87Z" fill="#6C9F29" fill-opacity="0.5"/>
<path d="M175.418 62.5628C175.065 62.4984 174.702 62.5044 174.351 62.5805C173.999 62.6565 173.666 62.8012 173.371 63.0062C173.076 63.2111 172.824 63.4724 172.63 63.7749C172.436 64.0774 172.303 64.4152 172.24 64.769C171.495 68.9143 170.678 72.6956 169.762 76.3315C169.584 77.0345 169.693 77.7793 170.064 78.4022C170.436 79.025 171.039 79.4751 171.742 79.6534C171.962 79.7092 172.188 79.737 172.415 79.7362C173.023 79.7358 173.613 79.5327 174.093 79.1592C174.573 78.7857 174.914 78.263 175.064 77.6737C176.015 73.9237 176.854 70.0175 177.625 65.7409C177.753 65.0269 177.593 64.291 177.18 63.695C176.766 63.099 176.132 62.6917 175.418 62.5628Z" fill="#6C9F29" fill-opacity="0.5"/>
</svg>
