<svg width="50" height="50" viewBox="0 0 50 50" fill="none" xmlns="http://www.w3.org/2000/svg">
<path d="M47.6316 1.88505C47.479 1.84565 47.3174 1.86003 47.1741 1.92577C47.0308 1.9915 46.9146 2.10459 46.8449 2.24599C46.7824 2.37412 45.2359 5.41474 38.4617 8.99208C38.3681 9.03295 38.2849 9.09427 38.2182 9.17154C38.1515 9.24881 38.1029 9.34006 38.0761 9.43857C37.6528 11.0238 37.0789 12.565 36.3621 14.0409C35.9666 13.1841 35.7015 12.273 35.5757 11.3378C35.5608 11.2341 35.5223 11.1352 35.4631 11.0488C35.4039 10.9624 35.3257 10.8907 35.2344 10.8393C35.1431 10.788 35.0413 10.7583 34.9367 10.7525C34.8321 10.7467 34.7276 10.7651 34.6312 10.8061C32.8406 11.569 30.8918 12.2956 28.8386 12.9651C26.1163 13.8352 23.4897 14.98 20.9992 16.3819C20.8551 16.4646 20.7461 16.5969 20.6925 16.7542C20.3837 17.6604 20.0501 18.5164 19.6918 19.3222C19.7066 19.0534 19.7264 18.7677 19.7511 18.4651C19.7619 18.336 19.7357 18.2064 19.6756 18.0916C19.6155 17.9768 19.524 17.8814 19.4118 17.8166C19.2995 17.7518 19.1712 17.7202 19.0417 17.7256C18.9122 17.7309 18.7869 17.7729 18.6804 17.8468C11.7355 22.6561 7.95114 29.444 6.77575 39.1835C4.99632 41.0448 3.43325 43.1015 2.11638 45.3144C1.8704 45.7323 1.79333 46.2284 1.90094 46.7013C2.00854 47.1742 2.29268 47.5881 2.69528 47.8585C2.99276 48.0501 3.33906 48.1523 3.69294 48.1526H34.9429C35.1242 48.1526 35.2981 48.0806 35.4263 47.9524C35.5545 47.8242 35.6265 47.6503 35.6265 47.469C35.6265 47.2877 35.5545 47.1139 35.4263 46.9857C35.2981 46.8575 35.1242 46.7854 34.9429 46.7854H5.57223C6.75919 44.8738 8.14801 43.0951 9.71481 41.48C16.4535 41.1495 32.0793 39.7886 38.2203 34.2362C38.666 33.8329 39.0899 33.4061 39.4902 32.9577C39.5704 32.8684 39.6257 32.7595 39.6505 32.642C39.6753 32.5246 39.6687 32.4026 39.6314 32.2885C39.5941 32.1744 39.5274 32.0721 39.438 31.992C39.3486 31.9118 39.2397 31.8566 39.1222 31.8319C38.9757 31.8015 38.8308 31.7694 38.6867 31.737C39.1726 31.6683 39.7187 31.603 40.3207 31.5491C40.4206 31.5399 40.5173 31.5089 40.604 31.4583C40.6906 31.4077 40.7651 31.3387 40.8222 31.2561C45.814 24.0124 47.2507 18.3851 48.1414 2.58427C48.1501 2.42681 48.1041 2.27117 48.0112 2.14374C47.9183 2.0163 47.7842 1.92491 47.6316 1.88505ZM3.29723 46.003C7.55505 38.6983 15.434 33.1472 23.775 27.271C25.5203 26.0417 27.5 24.6483 29.3972 23.255C29.4812 23.1927 29.5829 23.159 29.6875 23.1589C29.7136 23.1589 29.7398 23.161 29.7656 23.1651C29.8288 23.1749 29.8894 23.1972 29.9439 23.2307C29.9984 23.2643 30.0456 23.3084 30.0828 23.3604C30.1587 23.4649 30.1904 23.595 30.1709 23.7226C30.1515 23.8502 30.0825 23.965 29.9789 24.0421C28.073 25.4378 26.0882 26.8358 24.3359 28.0694C16.0691 33.8936 8.26052 39.3948 4.11169 46.5433C4.07872 46.6001 4.03452 46.6497 3.98177 46.689C3.92902 46.7282 3.86884 46.7563 3.80488 46.7716C3.74093 46.7868 3.67454 46.7889 3.60976 46.7776C3.54498 46.7664 3.48317 46.7421 3.42809 46.7061C3.32237 46.6265 3.2503 46.5101 3.22608 46.38C3.20186 46.2499 3.22724 46.1154 3.29723 46.003ZM39.8761 30.2175C38.429 30.3379 36.9954 30.5863 35.5922 30.9597C35.4545 31.0014 35.3335 31.0855 35.2464 31.1999C35.1592 31.3144 35.1104 31.4534 35.1068 31.5972C35.1032 31.741 35.145 31.8822 35.2263 32.0009C35.3077 32.1196 35.4243 32.2096 35.5597 32.2581C36.2175 32.4925 36.9187 32.7058 37.6547 32.894C37.5375 33.0061 37.4222 33.1147 37.3031 33.221C31.8297 38.1698 17.5715 39.6214 11.1554 40.0292C15.1054 36.2468 20.0261 32.7792 25.125 29.1874C26.8828 27.9503 28.8711 26.5483 30.7855 25.144C31.1795 24.8527 31.4428 24.4177 31.518 23.9335C31.5933 23.4493 31.4745 22.9549 31.1875 22.5577C31.044 22.3598 30.8627 22.1922 30.6542 22.0646C30.4456 21.937 30.2139 21.852 29.9723 21.8144C29.7307 21.7768 29.4841 21.7873 29.2466 21.8454C29.0092 21.9036 28.7855 22.0081 28.5886 22.153C26.7004 23.5382 24.7277 24.9265 22.9875 26.1538C17.6812 29.8921 12.5601 33.5007 8.39059 37.5354C9.66208 29.7151 12.8468 24.0143 18.3 19.8167C18.2608 20.6137 18.2711 21.4124 18.3308 22.2081C18.3452 22.3512 18.4043 22.4861 18.4998 22.5936C18.5952 22.7011 18.7221 22.7759 18.8625 22.8071C19.0028 22.8383 19.1495 22.8245 19.2815 22.7676C19.4136 22.7107 19.5243 22.6136 19.598 22.4901C20.5329 20.8885 21.305 19.1972 21.9027 17.4417C24.2471 16.1451 26.7127 15.0812 29.2644 14.2651C31.0574 13.6792 32.7738 13.0518 34.3789 12.394C34.875 14.6722 35.8343 15.8218 35.88 15.8749C35.9513 15.9586 36.0417 16.0239 36.1436 16.0653C36.2454 16.1066 36.3558 16.1228 36.4652 16.1124C36.5747 16.102 36.68 16.0654 36.7723 16.0056C36.8646 15.9458 36.9411 15.8647 36.9953 15.769C37.993 13.9744 38.7722 12.0667 39.316 10.0866C43.1621 8.02958 45.3925 6.11708 46.6414 4.77021C45.7664 18.3726 44.3101 23.7011 39.8761 30.2175Z" fill="#705042"/>
<path d="M43.8541 15.6406C43.7657 15.6245 43.675 15.626 43.5872 15.645C43.4993 15.664 43.4161 15.7002 43.3423 15.7514C43.2685 15.8027 43.2055 15.868 43.157 15.9436C43.1085 16.0192 43.0754 16.1037 43.0595 16.1921C42.8732 17.2285 42.6689 18.1738 42.44 19.0828C42.3956 19.2585 42.4228 19.4447 42.5156 19.6004C42.6084 19.7561 42.7592 19.8686 42.9349 19.9132C42.99 19.9272 43.0465 19.9341 43.1033 19.9339C43.2553 19.9338 43.4029 19.8831 43.5228 19.7897C43.6427 19.6963 43.7281 19.5656 43.7654 19.4183C44.0033 18.4808 44.2131 17.5042 44.4056 16.4351C44.4378 16.2566 44.3978 16.0726 44.2944 15.9236C44.191 15.7746 44.0326 15.6728 43.8541 15.6406Z" fill="#705042"/>
</svg>
