<svg width="40" height="40" viewBox="0 0 40 40" fill="none" xmlns="http://www.w3.org/2000/svg">
<g clip-path="url(#clip0)">
<path d="M34.0466 28.0392C33.452 26.8463 32.4246 25.9551 31.1535 25.5296C30.2392 25.2236 29.2807 25.1873 28.3705 25.4117V13.6892C28.3705 11.6819 26.86 9.97953 24.9137 9.69047V6.47797C25.56 6.38445 26.0585 5.82844 26.0585 5.15672V1.33664C26.0585 0.599609 25.4589 0 24.7219 0H9.07901C8.34198 0 7.74237 0.599609 7.74237 1.33664V5.15664C7.74237 5.82766 8.23987 6.38313 8.88503 6.47758V9.69039C6.94151 9.97898 5.4305 11.6816 5.4305 13.6892V26.5688C5.4305 26.8924 5.69284 27.1548 6.01644 27.1548C6.34003 27.1548 6.60237 26.8924 6.60237 26.5688V24.6745H11.5613C12.0803 25.7793 12.9428 26.6778 14.0368 27.1959H14.0369C14.0369 27.1959 14.037 27.1959 14.0371 27.1959C14.7227 27.5203 15.4662 27.6796 16.2171 27.6796C17.3671 27.6796 18.5342 27.306 19.5364 26.5791C20.2394 26.0692 20.8125 25.4252 21.2457 24.6745H27.1986V25.8588L22.6075 28.1486C22.6045 28.1501 22.6013 28.1511 22.5982 28.1527C22.5951 28.1542 22.5923 28.1561 22.5893 28.1577L20.4324 29.2334C20.1428 29.3779 20.0251 29.7297 20.1696 30.0192C20.314 30.3088 20.6657 30.4265 20.9553 30.282L22.5969 29.4634L26.0176 36.3261L21.8053 38.4259C20.8935 38.8808 19.8547 38.9517 18.88 38.6259C17.9053 38.3 17.118 37.6184 16.6633 36.7073C15.7219 34.8147 16.494 32.5076 18.3845 31.5642C18.674 31.4197 18.7917 31.0679 18.6471 30.7784C18.5026 30.4888 18.1509 30.3711 17.8613 30.5157C15.8365 31.526 14.7956 33.7345 15.1654 35.8597H9.50198C7.90315 35.8597 6.6023 34.5718 6.6023 32.9888V29.3016C6.6023 28.978 6.33995 28.7156 6.01636 28.7156C5.69276 28.7156 5.43042 28.978 5.43042 29.3016V32.9888C5.43042 35.2179 7.2569 37.0315 9.5019 37.0315H15.5219C15.5514 37.0979 15.5817 37.1641 15.6143 37.2298C16.209 38.4216 17.2367 39.3121 18.5082 39.7373C19.0333 39.9128 19.5726 40 20.1091 40C20.8718 40 21.6285 39.8237 22.3281 39.4746L27.0574 37.1171C27.0598 37.1159 27.0623 37.1152 27.0647 37.114C27.0675 37.1126 27.07 37.1109 27.0728 37.1095L31.7992 34.7534C32.992 34.1587 33.8833 33.1309 34.3088 31.8594C34.7344 30.5877 34.6412 29.2309 34.0466 28.0392ZM8.91425 1.33664C8.91425 1.2457 8.98815 1.1718 9.07901 1.1718H24.7219C24.8112 1.1718 24.8867 1.24727 24.8867 1.33664V5.15664C24.8867 5.24445 24.8096 5.32148 24.7219 5.32148H24.3278H21.8679V4.59414C21.8679 4.27055 21.6056 4.0082 21.282 4.0082C20.9584 4.0082 20.696 4.27055 20.696 4.59414V5.32148H17.4864V4.59414C17.4864 4.27055 17.224 4.0082 16.9004 4.0082C16.5768 4.0082 16.3145 4.27055 16.3145 4.59414V5.32148H13.1047V4.59414C13.1047 4.27055 12.8424 4.0082 12.5188 4.0082C12.1952 4.0082 11.9328 4.27055 11.9328 4.59414V5.32148H9.47081H9.07886C8.98956 5.32148 8.91409 5.24602 8.91409 5.15664V1.33664H8.91425ZM11.0251 22.5505C11.0444 22.8755 11.0901 23.1938 11.1599 23.5027H6.6023V17.5504H13.0003C11.6212 18.9976 10.9175 20.7404 11.0251 22.5505ZM18.8484 25.6305C17.7113 26.4552 16.3171 26.7098 15.0871 26.3458L16.7985 22.7273L18.9205 21.9673C19.2251 21.8582 19.3836 21.5227 19.2746 21.2181C19.1655 20.9134 18.8302 20.7549 18.5254 20.8641L17.5074 21.2288L18.0546 20.0718C18.1929 19.7793 18.0679 19.43 17.7754 19.2916C17.4829 19.1531 17.1336 19.2782 16.9953 19.5708L15.3268 23.0983L14.9632 22.0801C14.8542 21.7753 14.5189 21.6166 14.2142 21.7254C13.9095 21.8343 13.7507 22.1695 13.8596 22.4742L14.6178 24.5972L14.0278 25.8445C13.3478 25.383 12.8212 24.7089 12.5086 23.9154C12.5022 23.8945 12.4944 23.8743 12.4857 23.8545C12.3238 23.4254 12.2233 22.963 12.1947 22.4811C12.0715 20.4084 13.286 18.4123 15.5267 17.0045L15.5267 17.0046L20.2685 14.0268L20.6465 17.022C20.6468 17.0252 20.6474 17.0284 20.6477 17.0316L20.9693 19.5805C21.3024 22.2064 20.5292 24.4116 18.8484 25.6305ZM21.399 13.6237C21.351 13.2485 21.1491 12.9511 20.845 12.8075C20.5408 12.6638 20.1823 12.697 19.8618 12.8985L14.9036 16.0121C14.9036 16.0121 14.9036 16.0121 14.9035 16.0122C14.7153 16.1304 14.5342 16.2529 14.3585 16.3786H6.6023V13.6892C6.6023 12.1494 7.85362 10.8624 9.38815 10.8203C9.63839 10.815 10.0608 10.6516 10.0569 10.073L10.0568 6.4932H23.7418V10.0551L23.7417 10.0726C23.7379 10.6516 24.1619 10.815 24.4091 10.8201C25.9472 10.8623 27.1985 12.1493 27.1985 13.6891V16.3784H21.7466L21.399 13.6237ZM21.7778 23.5027C22.193 22.306 22.321 20.9243 22.1321 19.4334L21.8945 17.5504H27.1986V23.5027H21.7778ZM33.1977 31.4874C32.8715 32.4622 32.1893 33.2496 31.2766 33.7045L27.0663 35.8034L23.6455 28.9405L27.8555 26.8409C28.7683 26.3859 29.8075 26.3148 30.7816 26.641C31.7558 26.9671 32.5428 27.6494 32.9979 28.5623C33.4528 29.474 33.5238 30.5128 33.1977 31.4874Z" fill="#ED5F25"/>
</g>
<defs>
<clipPath id="clip0">
<rect width="40" height="40" fill="white"/>
</clipPath>
</defs>
</svg>
