<svg width="25" height="27" viewBox="0 0 25 27" fill="none" xmlns="http://www.w3.org/2000/svg">
<path d="M20.8333 19.0843C19.7778 19.0843 18.8333 19.491 18.1111 20.128L8.20833 14.503C8.27778 14.1913 8.33333 13.8795 8.33333 13.5542C8.33333 13.2289 8.27778 12.9172 8.20833 12.6054L18 7.03464C18.75 7.71235 19.7361 8.13253 20.8333 8.13253C23.1389 8.13253 25 6.31627 25 4.06627C25 1.81627 23.1389 0 20.8333 0C18.5278 0 16.6667 1.81627 16.6667 4.06627C16.6667 4.39157 16.7222 4.70331 16.7917 5.01506L7 10.5858C6.25 9.90813 5.26389 9.48795 4.16667 9.48795C1.86111 9.48795 0 11.3042 0 13.5542C0 15.8042 1.86111 17.6205 4.16667 17.6205C5.26389 17.6205 6.25 17.2003 7 16.5226L16.8889 22.1611C16.8194 22.4458 16.7778 22.744 16.7778 23.0422C16.7778 25.2244 18.5972 27 20.8333 27C23.0694 27 24.8889 25.2244 24.8889 23.0422C24.8889 20.8599 23.0694 19.0843 20.8333 19.0843Z" fill="#696969"/>
</svg>
