<svg width="40" height="40" viewBox="0 0 40 40" fill="none" xmlns="http://www.w3.org/2000/svg">
<path d="M13.9226 15H25.6414C25.7657 15 25.8849 14.9506 25.9728 14.8627C26.0607 14.7748 26.1101 14.6556 26.1101 14.5312C26.1101 14.4069 26.0607 14.2877 25.9728 14.1998C25.8849 14.1119 25.7657 14.0625 25.6414 14.0625H13.9226C13.7983 14.0625 13.6791 14.1119 13.5912 14.1998C13.5032 14.2877 13.4539 14.4069 13.4539 14.5312C13.4539 14.6556 13.5032 14.7748 13.5912 14.8627C13.6791 14.9506 13.7983 15 13.9226 15Z" fill="#ED5F25"/>
<path d="M9.18751 14.4445L8.14602 15.4402L7.7236 15.0178C7.68029 14.9733 7.62857 14.9379 7.57145 14.9135C7.51433 14.8892 7.45294 14.8764 7.39085 14.876C7.32876 14.8756 7.2672 14.8875 7.20976 14.9111C7.15231 14.9347 7.10012 14.9694 7.05622 15.0133C7.01232 15.0572 6.97757 15.1094 6.95401 15.1669C6.93045 15.2243 6.91853 15.2859 6.91896 15.348C6.91938 15.4101 6.93214 15.4714 6.95649 15.5286C6.98083 15.5857 7.01629 15.6374 7.06079 15.6807L7.80727 16.4273C7.89389 16.5139 8.01098 16.5632 8.13347 16.5645C8.25596 16.5659 8.37412 16.5193 8.46266 16.4346L9.8354 15.1221C9.88032 15.0797 9.9164 15.0288 9.94158 14.9723C9.96675 14.9159 9.98052 14.8551 9.98209 14.7933C9.98366 14.7315 9.973 14.67 9.95072 14.6124C9.92845 14.5547 9.89499 14.5021 9.85229 14.4574C9.80958 14.4128 9.75847 14.377 9.70188 14.3521C9.6453 14.3273 9.58436 14.3139 9.52258 14.3127C9.46079 14.3115 9.39938 14.3225 9.34188 14.3452C9.28437 14.3678 9.23191 14.4016 9.18751 14.4445Z" fill="#ED5F25"/>
<path d="M8.45387 12.2579C7.82464 12.2579 7.20955 12.4445 6.68637 12.794C6.16318 13.1436 5.75542 13.6405 5.51462 14.2218C5.27383 14.8032 5.21084 15.4428 5.3336 16.06C5.45636 16.6771 5.75937 17.244 6.2043 17.6889C6.64924 18.1338 7.21612 18.4368 7.83325 18.5596C8.45039 18.6823 9.09007 18.6193 9.67139 18.3785C10.2527 18.1377 10.7496 17.7299 11.0991 17.2067C11.4487 16.6835 11.6353 16.0684 11.6353 15.4392C11.6343 14.5957 11.2988 13.7871 10.7024 13.1907C10.106 12.5943 9.29733 12.2588 8.45387 12.2579ZM8.45387 17.6831C8.01007 17.6831 7.57623 17.5515 7.20722 17.3049C6.83821 17.0584 6.55061 16.7079 6.38077 16.2979C6.21093 15.8879 6.1665 15.4367 6.25308 15.0014C6.33966 14.5662 6.55337 14.1663 6.86719 13.8525C7.181 13.5387 7.58083 13.325 8.0161 13.2384C8.45138 13.1518 8.90255 13.1963 9.31257 13.3661C9.72259 13.5359 10.073 13.8235 10.3196 14.1926C10.5662 14.5616 10.6978 14.9954 10.6978 15.4392C10.6972 16.0342 10.4606 16.6046 10.0399 17.0254C9.61925 17.4461 9.04884 17.6828 8.45387 17.6834V17.6831Z" fill="#ED5F25"/>
<path d="M13.9226 22.8125H25.6414C25.7657 22.8125 25.8849 22.7631 25.9728 22.6752C26.0607 22.5873 26.1101 22.4681 26.1101 22.3438C26.1101 22.2194 26.0607 22.1002 25.9728 22.0123C25.8849 21.9244 25.7657 21.875 25.6414 21.875H13.9226C13.7983 21.875 13.6791 21.9244 13.5912 22.0123C13.5032 22.1002 13.4539 22.2194 13.4539 22.3438C13.4539 22.4681 13.5032 22.5873 13.5912 22.6752C13.6791 22.7631 13.7983 22.8125 13.9226 22.8125Z" fill="#ED5F25"/>
<path d="M9.18751 22.257L8.14602 23.2527L7.7236 22.8303C7.68029 22.7858 7.62857 22.7504 7.57145 22.726C7.51433 22.7017 7.45294 22.6889 7.39085 22.6885C7.32876 22.6881 7.2672 22.7 7.20976 22.7236C7.15231 22.7472 7.10012 22.7819 7.05622 22.8258C7.01232 22.8697 6.97757 22.9219 6.95401 22.9794C6.93045 23.0368 6.91853 23.0984 6.91896 23.1605C6.91938 23.2226 6.93214 23.284 6.95649 23.3411C6.98083 23.3982 7.01629 23.4499 7.06079 23.4932L7.80727 24.2398C7.89389 24.3264 8.01098 24.3757 8.13347 24.377C8.25596 24.3784 8.37412 24.3318 8.46266 24.2471L9.8354 22.9346C9.88032 22.8922 9.9164 22.8413 9.94158 22.7848C9.96675 22.7284 9.98052 22.6676 9.98209 22.6058C9.98366 22.544 9.973 22.4825 9.95072 22.4249C9.92845 22.3673 9.89499 22.3146 9.85229 22.2699C9.80958 22.2253 9.75847 22.1895 9.70188 22.1646C9.6453 22.1398 9.58436 22.1264 9.52258 22.1252C9.46079 22.124 9.39938 22.135 9.34188 22.1577C9.28437 22.1803 9.23191 22.2141 9.18751 22.257Z" fill="#ED5F25"/>
<path d="M8.45387 20.0704C7.82464 20.0704 7.20955 20.257 6.68637 20.6065C6.16318 20.9561 5.75542 21.453 5.51462 22.0343C5.27383 22.6157 5.21084 23.2553 5.3336 23.8725C5.45636 24.4896 5.75937 25.0565 6.2043 25.5014C6.64924 25.9463 7.21612 26.2493 7.83325 26.3721C8.45039 26.4948 9.09007 26.4318 9.67139 26.191C10.2527 25.9502 10.7496 25.5424 11.0991 25.0192C11.4487 24.496 11.6353 23.8809 11.6353 23.2517C11.6343 22.4082 11.2988 21.5996 10.7024 21.0032C10.106 20.4068 9.29733 20.0713 8.45387 20.0704ZM8.45387 25.4956C8.01007 25.4956 7.57623 25.364 7.20722 25.1174C6.83821 24.8709 6.55061 24.5204 6.38077 24.1104C6.21093 23.7004 6.1665 23.2492 6.25308 22.8139C6.33966 22.3787 6.55337 21.9788 6.86719 21.665C7.181 21.3512 7.58083 21.1375 8.0161 21.0509C8.45138 20.9643 8.90255 21.0088 9.31257 21.1786C9.72259 21.3484 10.073 21.636 10.3196 22.0051C10.5662 22.3741 10.6978 22.8079 10.6978 23.2517C10.6972 23.8467 10.4606 24.4171 10.0399 24.8379C9.61925 25.2586 9.04884 25.4953 8.45387 25.4959V25.4956Z" fill="#ED5F25"/>
<path d="M9.18751 30.0695L8.14602 31.0652L7.7236 30.6428C7.68029 30.5983 7.62857 30.5629 7.57145 30.5385C7.51433 30.5142 7.45294 30.5014 7.39085 30.501C7.32876 30.5006 7.2672 30.5125 7.20976 30.5361C7.15231 30.5597 7.10012 30.5944 7.05622 30.6383C7.01232 30.6822 6.97757 30.7344 6.95401 30.7919C6.93045 30.8493 6.91853 30.9109 6.91896 30.973C6.91938 31.0351 6.93214 31.0965 6.95649 31.1536C6.98083 31.2107 7.01629 31.2624 7.06079 31.3057L7.80727 32.0523C7.89389 32.1389 8.01098 32.1882 8.13347 32.1895C8.25596 32.1909 8.37412 32.1443 8.46266 32.0596L9.8354 30.7471C9.88032 30.7047 9.9164 30.6538 9.94158 30.5973C9.96675 30.5409 9.98052 30.4801 9.98209 30.4183C9.98366 30.3565 9.973 30.295 9.95072 30.2374C9.92845 30.1798 9.89499 30.1271 9.85229 30.0824C9.80958 30.0378 9.75847 30.002 9.70188 29.9771C9.6453 29.9523 9.58436 29.9389 9.52258 29.9377C9.46079 29.9365 9.39938 29.9475 9.34188 29.9702C9.28437 29.9928 9.23191 30.0266 9.18751 30.0695Z" fill="#ED5F25"/>
<path d="M8.45387 27.8829C7.82464 27.8829 7.20955 28.0695 6.68637 28.419C6.16318 28.7686 5.75542 29.2655 5.51462 29.8468C5.27383 30.4282 5.21084 31.0678 5.3336 31.685C5.45636 32.3021 5.75937 32.869 6.2043 33.3139C6.64924 33.7588 7.21612 34.0618 7.83325 34.1846C8.45039 34.3073 9.09007 34.2443 9.67139 34.0035C10.2527 33.7627 10.7496 33.3549 11.0991 32.8317C11.4487 32.3085 11.6353 31.6934 11.6353 31.0642C11.6343 30.2207 11.2988 29.4121 10.7024 28.8157C10.106 28.2193 9.29733 27.8838 8.45387 27.8829ZM8.45387 33.3081C8.01007 33.3081 7.57623 33.1765 7.20722 32.93C6.83821 32.6834 6.55061 32.3329 6.38077 31.9229C6.21093 31.5129 6.1665 31.0617 6.25308 30.6264C6.33966 30.1912 6.55337 29.7913 6.86719 29.4775C7.181 29.1637 7.58083 28.95 8.0161 28.8634C8.45138 28.7768 8.90255 28.8213 9.31257 28.9911C9.72259 29.1609 10.073 29.4485 10.3196 29.8176C10.5662 30.1866 10.6978 30.6204 10.6978 31.0642C10.6972 31.6592 10.4606 32.2296 10.0399 32.6504C9.61925 33.0711 9.04884 33.3078 8.45387 33.3084V33.3081Z" fill="#ED5F25"/>
<path d="M13.9226 16.5625H20.1726C20.2969 16.5625 20.4162 16.5131 20.5041 16.4252C20.592 16.3373 20.6414 16.2181 20.6414 16.0938C20.6414 15.9694 20.592 15.8502 20.5041 15.7623C20.4162 15.6744 20.2969 15.625 20.1726 15.625H13.9226C13.7983 15.625 13.6791 15.6744 13.5912 15.7623C13.5032 15.8502 13.4539 15.9694 13.4539 16.0938C13.4539 16.2181 13.5032 16.3373 13.5912 16.4252C13.6791 16.5131 13.7983 16.5625 13.9226 16.5625Z" fill="#ED5F25"/>
<path d="M13.9226 24.375H20.1726C20.2969 24.375 20.4162 24.3256 20.5041 24.2377C20.592 24.1498 20.6414 24.0306 20.6414 23.9062C20.6414 23.7819 20.592 23.6627 20.5041 23.5748C20.4162 23.4869 20.2969 23.4375 20.1726 23.4375H13.9226C13.7983 23.4375 13.6791 23.4869 13.5912 23.5748C13.5032 23.6627 13.4539 23.7819 13.4539 23.9062C13.4539 24.0306 13.5032 24.1498 13.5912 24.2377C13.6791 24.3256 13.7983 24.375 13.9226 24.375Z" fill="#ED5F25"/>
<path d="M4.60938 7.3515C4.48505 7.3515 4.36583 7.40089 4.27792 7.4888C4.19001 7.5767 4.14063 7.69593 4.14062 7.82025V8.31244C4.14062 8.43676 4.19001 8.55599 4.27792 8.6439C4.36583 8.7318 4.48505 8.78119 4.60938 8.78119C4.7337 8.78119 4.85292 8.7318 4.94083 8.6439C5.02874 8.55599 5.07812 8.43676 5.07812 8.31244V7.82025C5.07812 7.69593 5.02874 7.5767 4.94083 7.4888C4.85292 7.40089 4.7337 7.3515 4.60938 7.3515Z" fill="#ED5F25"/>
<path d="M4.60938 9.32739C4.48505 9.32739 4.36583 9.37678 4.27792 9.46469C4.19001 9.55259 4.14063 9.67182 4.14062 9.79614V14.3274C4.14062 14.4517 4.19001 14.5709 4.27792 14.6589C4.36583 14.7468 4.48505 14.7961 4.60938 14.7961C4.7337 14.7961 4.85292 14.7468 4.94083 14.6589C5.02874 14.5709 5.07812 14.4517 5.07812 14.3274V9.79614C5.07812 9.73459 5.066 9.67363 5.04244 9.61676C5.01889 9.55989 4.98436 9.50821 4.94083 9.46469C4.8973 9.42116 4.84563 9.38663 4.78876 9.36307C4.73189 9.33952 4.67093 9.32739 4.60938 9.32739Z" fill="#ED5F25"/>
<path d="M35.7243 20.9141C35.4107 20.8483 35.0872 20.8453 34.7724 20.9054C34.4577 20.9655 34.158 21.0874 33.8906 21.2641L29.0625 24.4348V6.8457C29.0625 5.29492 27.788 4.0625 26.2372 4.0625H23.2812V2.60742C23.2812 2.4831 23.2319 2.36387 23.144 2.27597C23.056 2.18806 22.9368 2.13867 22.8125 2.13867C22.6882 2.13867 22.569 2.18806 22.481 2.27597C22.3931 2.36387 22.3438 2.4831 22.3438 2.60742V4.0625H18.3594V2.60742C18.3594 2.4831 18.31 2.36387 18.2221 2.27597C18.1342 2.18806 18.0149 2.13867 17.8906 2.13867C17.7663 2.13867 17.6471 2.18806 17.5592 2.27597C17.4713 2.36387 17.4219 2.4831 17.4219 2.60742V4.0625H13.5156V2.60742C13.5156 2.4831 13.4662 2.36387 13.3783 2.27597C13.2904 2.18806 13.1712 2.13867 13.0469 2.13867C12.9226 2.13867 12.8033 2.18806 12.7154 2.27597C12.6275 2.36387 12.5781 2.4831 12.5781 2.60742V4.0625H8.59375V2.60742C8.59375 2.4831 8.54437 2.36387 8.45646 2.27597C8.36855 2.18806 8.24932 2.13867 8.125 2.13867C8.00068 2.13867 7.88145 2.18806 7.79355 2.27597C7.70564 2.36387 7.65625 2.4831 7.65625 2.60742V4.0625H5.14344C4.77644 4.05988 4.41255 4.12996 4.07277 4.2687C3.73299 4.40743 3.42404 4.61208 3.16376 4.87083C2.90348 5.12958 2.69701 5.43731 2.55627 5.77627C2.41553 6.11522 2.3433 6.47869 2.34375 6.8457V35.0488C2.34375 36.5997 3.59258 37.8906 5.14344 37.8906H26.2372C27.788 37.8906 29.0625 36.5997 29.0625 35.0488V30.2703L36.5692 25.3406C36.9724 25.0758 37.2879 24.6973 37.476 24.2531C37.6641 23.8089 37.7162 23.3189 37.6257 22.845C37.5353 22.3712 37.3064 21.9349 36.9679 21.5911C36.6295 21.2474 36.1967 21.0118 35.7243 20.9141ZM22.786 6.99797C22.95 6.99797 23.1102 7.04658 23.2465 7.13766C23.3828 7.22875 23.4891 7.3582 23.5518 7.50967C23.6146 7.66113 23.631 7.82779 23.599 7.98859C23.567 8.14938 23.4881 8.29708 23.3721 8.413C23.2562 8.52892 23.1085 8.60787 22.9477 8.63985C22.7869 8.67184 22.6203 8.65542 22.4688 8.59268C22.3173 8.52995 22.1879 8.4237 22.0968 8.28739C22.0057 8.15108 21.9571 7.99082 21.9571 7.82687C21.9573 7.60711 22.0447 7.3964 22.2001 7.241C22.3555 7.0856 22.5662 6.9982 22.786 6.99797ZM17.9014 6.99797C18.0653 6.99798 18.2256 7.04661 18.3619 7.1377C18.4982 7.22879 18.6044 7.35826 18.6672 7.50972C18.7299 7.66118 18.7463 7.82785 18.7143 7.98863C18.6823 8.14942 18.6034 8.29711 18.4874 8.41303C18.3715 8.52894 18.2238 8.60788 18.063 8.63986C17.9022 8.67184 17.7356 8.65542 17.5841 8.59268C17.4326 8.52994 17.3032 8.42369 17.2121 8.28738C17.121 8.15107 17.0724 7.99081 17.0724 7.82687C17.0727 7.6071 17.1601 7.39639 17.3155 7.241C17.4709 7.0856 17.6816 6.9982 17.9014 6.99797ZM13.0166 6.99797C13.1806 6.99801 13.3408 7.04667 13.4771 7.13778C13.6134 7.22889 13.7196 7.35836 13.7823 7.50983C13.845 7.6613 13.8614 7.82795 13.8294 7.98873C13.7973 8.14951 13.7184 8.29718 13.6025 8.41308C13.4865 8.52898 13.3388 8.60791 13.178 8.63987C13.0172 8.67184 12.8506 8.65541 12.6991 8.59266C12.5477 8.52992 12.4183 8.42367 12.3272 8.28737C12.2361 8.15106 12.1875 7.99081 12.1875 7.82687C12.1877 7.60707 12.2752 7.39634 12.4306 7.24094C12.5861 7.08554 12.7968 6.99815 13.0166 6.99797ZM8.13203 6.99797C8.29597 6.99798 8.45622 7.04661 8.59253 7.1377C8.72883 7.22879 8.83506 7.35826 8.89779 7.50972C8.96051 7.66118 8.97692 7.82785 8.94492 7.98863C8.91293 8.14942 8.83398 8.29711 8.71805 8.41303C8.60212 8.52894 8.45443 8.60788 8.29364 8.63986C8.13285 8.67184 7.96619 8.65542 7.81473 8.59268C7.66327 8.52994 7.53382 8.42369 7.44274 8.28738C7.35166 8.15107 7.30305 7.99081 7.30305 7.82687C7.3033 7.6071 7.39072 7.39639 7.54613 7.241C7.70154 7.0856 7.91226 6.9982 8.13203 6.99797ZM28.125 35.0488C28.1227 35.5503 27.9235 36.0308 27.5705 36.387C27.2174 36.7431 26.7386 36.9464 26.2372 36.9531H5.14344C4.10938 36.9531 3.28125 36.0827 3.28125 35.0488V6.8457C3.28067 6.60177 3.32856 6.36014 3.42214 6.13487C3.51572 5.9096 3.65313 5.70516 3.82638 5.53344C3.99964 5.36172 4.20529 5.22614 4.43138 5.13456C4.65748 5.04299 4.89952 4.99725 5.14344 5H7.65625V6.12406C6.95313 6.33 6.36211 7.01516 6.36211 7.82719C6.36211 8.0591 6.40779 8.28875 6.49654 8.50301C6.58529 8.71728 6.71538 8.91196 6.87937 9.07595C7.04335 9.23994 7.23804 9.37002 7.4523 9.45877C7.66656 9.54752 7.89621 9.5932 8.12813 9.5932C8.36004 9.5932 8.58969 9.54752 8.80395 9.45877C9.01821 9.37002 9.2129 9.23994 9.37689 9.07595C9.54088 8.91196 9.67096 8.71728 9.75971 8.50301C9.84846 8.28875 9.89414 8.0591 9.89414 7.82719C9.8997 7.43862 9.77451 7.05946 9.53868 6.75059C9.30285 6.44172 8.97006 6.22107 8.59375 6.12406V5H12.5781V6.12406C12.2005 6.22049 11.8661 6.44061 11.6282 6.7493C11.3903 7.058 11.2627 7.43747 11.2656 7.82719C11.2656 8.29616 11.4519 8.74593 11.7835 9.07755C12.1152 9.40917 12.5649 9.59547 13.0339 9.59547C13.5029 9.59547 13.9527 9.40917 14.2843 9.07755C14.6159 8.74593 14.8022 8.29616 14.8022 7.82719C14.7955 7.4437 14.6674 7.0722 14.4362 6.76616C14.205 6.46011 13.8827 6.2353 13.5156 6.12406V5H17.4219V6.12406C16.7188 6.33 16.1296 7.01516 16.1296 7.82719C16.1296 8.29546 16.3156 8.74455 16.6467 9.07567C16.9779 9.40679 17.427 9.59281 17.8952 9.59281C18.3635 9.59281 18.8126 9.40679 19.1437 9.07567C19.4748 8.74455 19.6609 8.29546 19.6609 7.82719C19.6661 7.43852 19.5407 7.05935 19.3047 6.7505C19.0687 6.44166 18.7358 6.22104 18.3594 6.12406V5H22.3438V6.12406C21.9663 6.2205 21.632 6.44068 21.3944 6.74941C21.1568 7.05814 21.0295 7.43761 21.0329 7.82719C21.0329 8.2961 21.2192 8.74581 21.5507 9.07739C21.8823 9.40896 22.332 9.59523 22.8009 9.59523C23.2699 9.59523 23.7196 9.40896 24.0511 9.07739C24.3827 8.74581 24.569 8.2961 24.569 7.82719C24.569 7.01547 23.9844 6.33031 23.2812 6.12406V5H26.2372C27.271 5 28.125 5.81188 28.125 6.8457V25.0505L26.3643 26.2067C26.3102 26.2423 26.2641 26.2886 26.2288 26.3429C26.1935 26.3971 26.1698 26.4581 26.1593 26.5219C26.1487 26.5858 26.1515 26.6511 26.1674 26.7139C26.1834 26.7766 26.2121 26.8353 26.2519 26.8864C26.3243 26.9793 26.429 27.0415 26.5451 27.0607C26.6613 27.0799 26.7805 27.0547 26.8789 26.9901L33.8491 22.4128L34.416 23.2758L22.6069 31.0312L22.0398 30.1682L24.2585 28.7114C24.31 28.6776 24.3543 28.634 24.3889 28.5831C24.4235 28.5322 24.4477 28.475 24.4602 28.4147C24.4727 28.3544 24.4732 28.2923 24.4617 28.2318C24.4502 28.1713 24.4268 28.1137 24.393 28.0623C24.3593 28.0108 24.3157 27.9665 24.2648 27.9319C24.2138 27.8973 24.1566 27.8731 24.0963 27.8606C24.0361 27.8481 23.9739 27.8476 23.9134 27.8591C23.853 27.8706 23.7954 27.8939 23.7439 27.9277L21.1354 29.6406C21.1306 29.6438 21.1263 29.6478 21.1214 29.6512C21.1095 29.6596 21.098 29.668 21.0866 29.6776C21.0828 29.6807 21.0795 29.6843 21.076 29.6876H13.9219C13.7976 29.6876 13.6783 29.737 13.5904 29.8249C13.5025 29.9128 13.4531 30.032 13.4531 30.1563C13.4531 30.2806 13.5025 30.3999 13.5904 30.4878C13.6783 30.5757 13.7976 30.6251 13.9219 30.6251H20.5477L20.2157 31.2523C20.2013 31.2509 20.1867 31.2501 20.1719 31.2501H13.9219C13.7976 31.2501 13.6783 31.2995 13.5904 31.3874C13.5025 31.4753 13.4531 31.5945 13.4531 31.7188C13.4531 31.8431 13.5025 31.9624 13.5904 32.0503C13.6783 32.1382 13.7976 32.1876 13.9219 32.1876H19.7207L19.1788 33.2114C19.1409 33.2828 19.1222 33.3628 19.1245 33.4436C19.1267 33.5243 19.1497 33.6032 19.1914 33.6724C19.2331 33.7416 19.2919 33.7989 19.3623 33.8387C19.4326 33.8785 19.512 33.8994 19.5928 33.8995C19.597 33.8995 19.6011 33.8995 19.6052 33.8995L23.5666 33.7956C23.5763 33.7956 23.5857 33.7937 23.5952 33.793C23.6048 33.7922 23.6156 33.7916 23.6258 33.7901C23.6382 33.7882 23.6502 33.785 23.6623 33.7823C23.6712 33.7802 23.6802 33.7787 23.6891 33.776C23.7095 33.7699 23.7296 33.7623 23.749 33.7534C23.7537 33.7513 23.7582 33.7484 23.7629 33.7456C23.7781 33.7382 23.7928 33.7301 23.8071 33.7211C23.8087 33.7201 23.8103 33.7195 23.8117 33.7185L28.125 30.886V35.0488ZM22.7001 32.8803L20.3823 32.941L21.4341 30.9537L22.7001 32.8803ZM23.6888 32.6777L23.6527 32.623L23.1215 31.8149L34.9306 24.0598L35.4977 24.9227L23.6888 32.6777ZM36.2679 24.3871L34.6463 21.9192C34.8461 21.8352 35.0616 21.7951 35.2783 21.8016C35.4949 21.8081 35.7077 21.8611 35.902 21.957C36.0146 22.0112 36.1191 22.0809 36.2124 22.164C36.3704 22.3012 36.498 22.4698 36.5872 22.6591C36.6764 22.8484 36.7251 23.0541 36.7303 23.2633C36.7356 23.4725 36.6971 23.6804 36.6175 23.8739C36.5379 24.0674 36.4188 24.2422 36.2679 24.3871Z" fill="#ED5F25"/>
</svg>
